<mxfile host="app.diagrams.net" modified="2022-10-29T05:55:38.624Z" agent="5.0 (Windows NT 10.0; Win64; x64) AppleWebKit/537.36 (KHTML, like Gecko) Chrome/106.0.0.0 Safari/537.36" etag="1I1NImrBW_mcpI5hYBSb" version="20.5.1" type="github" pages="3">
  <diagram id="Fg04bjY31ie2VXN6aymH" name="Implement Buttons">
    <mxGraphModel dx="898" dy="429" grid="1" gridSize="10" guides="1" tooltips="1" connect="1" arrows="1" fold="1" page="1" pageScale="1" pageWidth="827" pageHeight="1169" math="0" shadow="0">
      <root>
        <mxCell id="0" />
        <mxCell id="1" parent="0" />
        <mxCell id="nOhEEwsSD5ij6Ou1B2wd-1" value="" style="shape=image;verticalLabelPosition=bottom;labelBackgroundColor=default;verticalAlign=top;aspect=fixed;imageAspect=0;image=data:image/png,iVBORw0KGgoAAAANSUhEUgAAAtEAAAC2CAYAAAAfp9HMAAAYYUlEQVR4nO3dd3hUZaLH8d9k0isJqfQaQjV0DEhAlBULqChgYVEQWV0XVy9XvYqKCqKX5nrFtguuNLEhCi5IEVRCExBUihQhQoAkEEJIT2bm/oFEQmaSvJpkAnw/z5PnIcOcc94Z9OSbk/c9sTgcDocAAAAAVJqHuwcAAAAAXGyIaAAAAMAQEQ0AAAAYIqIBAAAAQ0Q0AAAAYIiIBgAAAAwR0QAAAIAhIhoAAAAwREQDAAAAhohoAAAAwBARDQAAABgiogEAAABDRDQAAABgiIgGAAAADBHRAAAAgCEiGgAAADBERAMAAACGiGgAAADAEBENAAAAGCKiAQAAAENENAAAAGCIiAYAAAAMEdEAAACAISIaAAAAMEREAwAAAIaIaAAAAMAQEQ0AAAAYIqIBAAAAQ0Q0AAAAYIiIBgAAAAwR0QAAAIAhIhoAAAAwREQDAAAAhohoAAAAwBARDQAAABgiogEAAABDRDQAAABgiIgGgIuUw+Fw9xAA4LLl6e4BmNruyNEmndE+R54yVSy+hACoThZJdeSplhY/dVeQ4i0BbhuLzW7Xmfw85RTkK6cgXza7XTa73W3jAXDp8LBY5O3pJV8vLwX6+CrEP0AWi8Xdw6rVLI6L5FJGlor1rj1N25Xj7qEAuIzFK0AjPCIVXMPXIPKLCnXiTJYyczkHAqh+If4BCg8Mlp+3t7uHUmtdFBGdpWJNtacoRYXuHgoAqL68Nc6jfo2FdG5hgVJPZyqnIL/kMU8Pq3y8vCR+HgegSlhUUFSkYrut5JFAXz9FBdchpF24KCL6/+xHuQINoFaJV4D+5lGvRo51JONEyRVob09PRYeEKtjPv0aODeDykpWXq+OnT6mwuFjS2SvSDULrMrXDiVq/sHC7I4eABlDrbFeOtjuq/9yUmZtTKqCbRkQT0ACqTbCfv5pGRMvb8+xP2k7n5ug008icqvURvUln3D0EAHCqJs5P2fl5JX+ODgmVl9Va7ccEcHnzsloVHRJa8nn2eVPJ8JtaH9H7HHkVPwkA3KC6z092u125hQWSzs6B5go0gJoS7OcvT4+z37TnFxW5eTS1U62P6EwVu3sIAOBUtZ+fLJaSeYlnFxECQM05d94pLCainan1EV3rVz0CuGxV9/nJo9RCHs6GAGra2fOOvfbfg8Itan1EAwAAALUNEQ0AAAAYIqIBAAAAQ0Q0AAAAYIiIBgAAAAwR0QAAAIAhIhoAAAAwREQDAAAAhohoAAAAwBARDQAAABgiogEAAABDRDQAAABgiIgGAAAADBHRAAAAgCEiGgAAADBERAMAAACGiGgAAADAEBENAAAAGCKiAQAAAENENAAAAGCIiAYAAAAMEdEAAACAISIaAAAAMEREX+JsBYU6tOgLLb92hGZbYzU/oqvWDH1Yx9ZulMNud7rN6Z8OanGngZptjXX68cWAUSo4mVnp55/72D5xptHY89Mz9P3Lb+nTLjdrtjVWHzTrq3Wjn1Lahu/KjD01aVuFx59tjdWBBZ85PVZxTp6+GfmE5tbpqKNfbih3XK5e7/yIrto6frry0zOM31NX75EtL1/rH3im3G1Sk7ZV6lifdrlZ37/8ltPxAZea9Zs3ySsiVJOmTan0NpOmTZFXRKjLjwUffVju9u/MnyuviFBNeOlF2Wy233Wsvjddr9VfrZXdxfl50rQpatGpg75en+T07/fu36fOfa4yet2SlJefrwfHPVrh60w5dkzX3jJQXhGhWr95k8vn5eTmas7C99Rv0I3yighVi04dNO7pp7Rn7145HI4Kx3Dhx+33DNd33+9wuu251+zq3+2GIbfpZAbnPVQ9T3cPANUnL/WENo59QQc/WqaQVk1V/9peshcV6+iX63Xwo2XqMnmc2j06Sh6eVqfbR/XspPp/6i0Pr9L/mXiHBMnDx/u8zwPVcsStshUUSpIKMk7rwLzFCotvo+jeXUueF9outtJjz05O0Tcjn9CJrT8qLL51ydiTF6/Q3tkfqtfbkxQ76vaS5/tFhqnL5HEln+ceOa5dM+ep+V2DFNquZcnjQc0aOT3emUNHlL55h4rO5OjY6vWKSewmi9X5+3LOhe9Pxo492vXaXJ3auV8933xeflHhVfYe+cdEqPndN8snLKTM3/lFhlU4voKTmUpdt0Vbnpymfe8uUs83J5Y6LoDfPHjfaDWIqVfm8eZNmrrcJic3V+s2bpQkrdu4Qanp6aoXHW10rDPZ2VqyfJluv2e4Zk6doWG3DpbFYimzTfLhw/qf5ydo1qszFRdb+fNqZb0zf64Se/ZS/ZiYUo87HA4tWvKp1q77ptztkw8f1tjHx+k/K1covn0HXdv3auXl5Wn2vDma+/57emXy/2roLbfKw8P5dbyYqCjdNWSYwurUkSSdyMjQx58t1u33DNfs195Q74SeTrdL6NZdf+p3jbw8S3/NCgkOkY+PT2VfPlBpRPQlypaXrx2TXteRL75Wj388rVajh8r6a/jmp2do6/jp+mHKP1W3YxvVv7aX032Eto1V+0dHyurnW+6x/KIj1Pbhe0o+P/3TQaWs+EaRPeLV4bH7f9f4kz9ZoWNrNylxzhQ1v3Og9OsXkqKsbB36ZEWZMQe3bFLqWKlJ27Rr5jw1uO6qs9uXx+FQyop18g4NUftx9+nomo2K/eWYgpo2KHezMu+Pw6GfZn2opDHj1eimvoodeV7k/8H3yDeyrmLvvU0hrVx/Ea9ofA67XUeWf60NDz2nreOnKXHONAU2qV/p/QGXi6G3DFZCt+5G2+zas1sr16zWU//13/p4yafatOVb3XLjTcbHGnPvKN3z4Bi9+9589el1lWKiopxut3nrFs2c9bZeevZ5Bfj7G421ImvXfaNFSz7VQ6PHlIr45MO/aOGij8vd9lRmpp6Y8Ix27tmtBf+arVtuuEmev0btweRD+vv/PK7Hnx2v6MhI9b2qt9N9RIRH6N4771Jsi98ugNw9ZKjuHD1S7763QJ3jOzp9zW1bt9EjDz4kP9/yv2YBVYXpHJeo1A3fad+cT9TmoeGK+8udJQEtSb4RYeo88VH9adk7qn+N8+/o3clWUKgzB48ouGUThbaPKwloSfIKPntF179eZJUdL/f4CR1Z9pXqXX2lmt81SEVZ2Tq2pvwpHU5ZLIrp013hndvpxLc/yJaXX2VjrAoWDw81HJCozi/8XalJ25S8eIW7hwRcEmw2mz5f8YXaxLXW3UOGqlunLlr6xXLl5OYa76t+TIyuSeyr1V+t1cHkQy6fFxMVpTdnz9Lr/3pbxcXFf2T4pQQFBioyPEL/XjBf+w7sL3ncZrPp/UWLdPjI4VJxe6HFny/RR58t1sN/eVC3Dby5JKAlqWnjJnp5wguKCI/Q67P+qVOZmS73c6GWzVuoT6+rtP2H75VyNOX3vTigihHRlyCHzaZjq9fLK9BfjW/p73S6hm9EmMK7tCsVqLWF1cdbQU0bKGvfIX3/8lvK2nfI5fztqnBq516lb96h6MRuCmnZWNFXddWR5d+o8PSZajum21gsiurVRZEJnXTyu90qOpPj7hEBF73U9HSt27hBPbp0VdPGTdQvsY9Wrlmtn/btrbZjTn/xJQ0ccL0mz5imDz9d7HKesammjZvo6f9+XOkn0vXJ0qUlc7t3/bRH8z5cqGGDb9ctN97odNsz2dn6en2SunXuopuuG+B0KkrL5s1103UDtPqrtdq7f7+TvQAXD6ZzXILshUUqyDitkFbN5B9T+opt0ZkcZezYI7vt7JULn5BghbaPdTr/99TOvfph+uxSc6KtPt5qNvQG+UVHVOtraHbHTUrbsF0/L1yqnxcuVUirpqp3dYIaDeqn6F5dKpxiUlm2gkIdXrpGUQmdFdYhTlY/X9Xr30sb//acTv90UBHdOlR+Zw6H0jdt14mtP6rFiFurbIySlJ92Unvf+ajMnOjo3t0U2SPeaF/edYLlHxOpvLSTshcWVdkYgUvF+598rKSNpX8a1bZ1G11/bX+nz9+05Vtt27Fdzz85XlarVQnduqlhg4b6en2SOna4wmlMunI8LU3rN29U74SealDP9XSretExmjT+WY0a+1c9Pel5NW7Y0HgKiis9e/TQsMG3a96HC3V9//6KbdFCc99fKEkaPnSYPlv2H6fbFRYWKi39hGKbN1fdsLpOn2O1WhXboqXOZGfrwKGD6t6lS6XGdCg5Wes3bVJcy1hFRzmfa75z9y7NeP21UnOifXx8NOSWwYqOrLqfXgLnENGXmdyjadow9jll7NgjSYq7f5i6T39SVr+yEZ2atK3MnR/CrohTg+sSqz2i/aLClTh/utqPu0+/LFmtw/9Zq91vzNfuN+Yr7Io4Jcx8TpFXdvzDx8nan6yjq5IUO2qIfOueXcRSN76NAhrV0+HP1yi8c1uXCwwv/CYjY8ceHf58jRoNvEZNb7vuD4/tfLnH0vXDlH+WeTxx7lTjiAZQvtf/Vfb/tQlPPOk0onNyc7X0i+Xql9hHrWNbSZJioqPVrVNnLV+9SkNvvc3lvGapdLCfW1iYfPgXzZw6Qw3rl79mIS42VpOfmaCRDz2gaa+9qubTZpi8TJd8vL01fOgwLVu1QnPfX6j+fa/Wwo8/1F/vG6M2reJcRvQ53t4+slawMLs86SfS9c6C+WUWFkrSmHtHKjgoyOl26zdvKnPHkA5t2+m6ftcQ0agWRPQlyOrrI/8G0fplyWrlHDleav5wSKumunnb2du8bZ84U7kpqS7381tgu2eRhoenVeFd2yu8a3t1eu5hZScf1e7X52nP2wu1/YWZ6j1ninzDQ3//AX5dUJi5+4A2j5uszeMml3lKy3sGu1xg6OybjNYP3qWOz/xNvhHO75jxe4VdEae+7/3DaGGhK4WZWco9lqbgZo3k4e1VBaMDLi1ffb680ld1zy0oPJaaqsWfLy3z9xu/3VzuAsMLg71Fs+Z6b9a/dW2fvpW6gn3VlQl64aln9Ndxj2ji1P/VvXfeXalxV6RNqzjdffswvfyP6Zr/wftq0ayZhg0eXG4ce3t7KzIiXD/u3qW09DQ1adS4zHNsNpv27t+noMBAl3c7OZaaqqn/949Sj/XqcaWmvjBJna5wfdFg9Ih7NW3iiywsRI1hTvSlyGJR5JUdVZSdq18+WyV7cdn7ldqLbSrKNl/0UlPsRcXS+XP8LBYFNqmv+KcfUuNB1yr3eFqpe1X/HgWZWUpdt0WNB12jPy2frQFfzi35SJg5Qembdujk9l0ut4+7f5hGZH+vkba9GnJgjaJ6dlLmrgO1e4qEw6GUlUlKW79NdTu2lldQgLtHBFy0HA6HkjZtVEBAoN59422tWryk5OOTee+pW+cu+np9kgoKC1zu46vPl6so/ZQK0zI0fdJk7f/5gI6kHKn0FBCLxaKBA67XXUOG6s3Zs/TSK9OVm5f3h1+b1WrVsMGD1b5NW6WdSNefh92hRg0alrtNUGCgeif01OatW7T6q7VO52kfOPizlixfpn6JfRTbooXT/XRo2047N2xWUfopZacc1yMPPqQdP/6gjFOnjKbGANWNK9GXqKiendVq9FDtem2ufCPrKm700JIrysU5efpxxmzteXOBmt9R8S2YapqtoFDbnp4hr6AAxd43VP4xv00dKTh1WjlHjssnNOQPB+DJ73bp6Or16j79yTK3zAuJbaZDi1bo8JIv1aD/VfIM8Ct3X4FN6qv1X4cracx47f33x+rw+BiX9992l3O3uNvx4huK6tlJjW92Pr8TQOUcT0vT8tWrlNCtuwZdf0Op267ZbDZt+W6bPl7yqQ78fI/axMWVuy+LxaJhg2/T1+uT9Pqsf6ln9ysrfQ/oAH9/jR/3mI4eO6ZPli75Q6/pfI0aNNSfh90hPz8/Xd//ukoF7I3XDdDNN9yoyTOmKSQkRLfeOLDkftAHkw/pqYnP62DyIb307HMK/XW6Rnl8vH10/4h7lLRpo17751tq37YdUzNQaxDRlyirj7c6PHa/8tMytOmRSdrz5gIFNqovh92urP3J8osOV1RC53L34Wxh4bl9V+fiwqKsbGUfPqaDH/xH2ya8qsge8fIKCiwZe3Zyirq+/Jj8opwvXKkMW0GhfvlstQIaRCuie9kfD/pFhinyyo7aO+sDndq5r1ILDBsP7Ke0pK3a88Z8RSV0UkzfHr97fBdytbBQcr248Px/v5xfjilt43c6+d0uhV0Rp64vP849onFZ2LTlW0159ZUyj4cEh+jO24coMKDsN+POFhZKZRcXbvx2s1Z/tVZvv/JqmfsWW61W9U7oqVffekMr1qxW61atKozQiLrheuTBh/Tnv4zWK2++rmkTX6z0PaCjIiI1afyzOp6Wps1bt1Rqm4pYLBaNGj5Co4aPqPQ2EXXDNfmZCRr7xGO6Y9S9im/fQRHh4SoqKtL3O3+UJM2cOkP9EvtUep8tmjXX2DEP6IFHH9bseXP02Ni/l7p13jnOFhZKLC5E9SGiL2G+EWHq+fZENRrUT3veWKCUlesU2Li+mt81UG3HjtCet94rd060szm/UvUvLvSNCFOf+dPVduwI/fz+50pdt0VpG9fJJyxE9a5OUM83n1fM1QkV/kbB8pxbUFjvmp4KblF23p7FalXDG/pq76wPlLJynSK6tq/wdoBWP1+1+duflb7lB+18dY7qtGlR6rcW/hGuFhZKrhcXXvjvF53YTd2mPKEWw2+u8jnbQG21bNVKLVu1sszj/fv20+CBg5xGtLOFhVLpxYXnFhR269zF5S8N6djhCvVL7KNVa9fo7qHDFO7ijhXn6965ix4YeZ8mTZuixJ69XP7WQmfOX2joTi2aNdeH/56ree8v1AeLF2nlmi/VuGFDDR96h+4bPkKtWrY0npYxcMD1Wr95o2bPm6NePa50+lsLnS0slFhciOpjcVTVzSWrySj7PncPAQBcmuXh+hdPVIUfjyRLkgJ8fNQ0ouJfIw0AVeVg+nHlFJyd09+uQdkLTpc7FhYCAAAAhohoAAAAwBARDQAAABgiogEAAABDRDQAAABgiIgGAAAADBHRAAAAgCEiGgAAADBERAMAAACGiGgAAADAEBENAAAAGCKiAQAAAENENAAAAGCIiAYAAAAMEdEAAACAISIaAAAAMEREAwAAAIaIaAAAAMAQEQ0AAAAYIqIBAAAAQ0Q0AAAAYIiIBgAAAAwR0QAAAIAhIhoAAAAwVOsj2uLuAQCAC9V9frLZ7TV4NAC40NnzjtWj1ueiW9T6d6WOPN09BABwqrrPT1YPD3larZKkgqKiaj0WAFzo3HmHiHau1r8rLS1+7h4CADhVE+enQB9fSVKx3aasvNxqPx4ASFJWXq6K7TZJUsCv5yGUVusjuruC3D0EAHCqJs5PwX7+JX8+fvqUimy2aj8mgMtbkc2m46dPlXxORDtX6yM63hKgeAW4exgAUEq8AhRvqf5zU5Cvn+r4nz1OYXGxDqYf54o0gGqTlZerg+nHVVhcLEmq4x+gIF9mBThjcTgcDncPoiJZKtZUe4pSVOjuoQCA6stb4zzqK7iG1mzkFRbqWGaGcgsLSh7z9LDKx8tLUq0/hQO4KFhUUFRUMoVDOnsFOqZOqHy9vN04rtrrooho6WxIv2tP03bluHsoAC5j8QrQCI/IGgvoc/IKC3UyO0uZuZwDAVS/Ov4BCgsMkr+3j7uHUmtdNBF9znZHjjbpjPY58pSpYq7BAKhWFp29C0dLi5+6K6hGpnC44nA4dCY/T1l5ucouyFcx86MBVCFvT0/5e/so8LxpZHDtootoAAAAwN1q/cJCAAAAoLYhogEAAABDRDQAAABgiIgGAAAADBHRAAAAgCEiGgAAADBERAMAAACGiGgAAADAEBENAAAAGCKiAQAAAENENAAAAGCIiAYAAAAMEdEAAACAISIaAAAAMEREAwAAAIaIaAAAAMAQEQ0AAAAYIqIBAAAAQ0Q0AAAAYIiIBgAAAAwR0QAAAIAhIhoAAAAwREQDAAAAhohoAAAAwBARDQAAABgiogEAAABDRDQAAABgiIgGAAAADBHRAAAAgCEiGgAAADBERAMAAACGiGgAAADAEBENAAAAGCKiAQAAAENENAAAAGCIiAYAAAAMEdEAAACAISIaAAAAMEREAwAAAIaIaAAAAMAQEQ0AAAAYIqIBAAAAQ0Q0AAAAYIiIBgAAAAwR0QAAAIAhIhoAAAAwREQDAAAAhohoAAAAwBARDQAAABgiogEAAABDRDQAAABgiIgGAAAADBHRAAAAgCEiGgAAADBERAMAAACGiGgAAADAEBENAAAAGCKiAQAAAENENAAAAGCIiAYAAAAMEdEAAACAISIaAAAAMEREAwAAAIaIaAAAAMAQEQ0AAAAY+n+biF9i310OQgAAAABJRU5ErkJggg==;" vertex="1" parent="1">
          <mxGeometry x="30" y="40" width="602.15" height="152" as="geometry" />
        </mxCell>
        <mxCell id="dbom7yaqh20Su6lemjV2-1" value="Todo" style="text;html=1;align=center;verticalAlign=middle;resizable=0;points=[];autosize=1;strokeColor=none;fillColor=none;fontStyle=1" vertex="1" parent="1">
          <mxGeometry x="75" y="245" width="50" height="30" as="geometry" />
        </mxCell>
        <mxCell id="dbom7yaqh20Su6lemjV2-2" value="Implement styles for buttons" style="text;html=1;align=center;verticalAlign=middle;resizable=0;points=[];autosize=1;strokeColor=none;fillColor=none;" vertex="1" parent="1">
          <mxGeometry x="75" y="290" width="170" height="30" as="geometry" />
        </mxCell>
        <mxCell id="dbom7yaqh20Su6lemjV2-3" value="Write a reusable code" style="text;html=1;align=center;verticalAlign=middle;resizable=0;points=[];autosize=1;strokeColor=none;fillColor=none;" vertex="1" parent="1">
          <mxGeometry x="75" y="320" width="140" height="30" as="geometry" />
        </mxCell>
        <mxCell id="dbom7yaqh20Su6lemjV2-5" value="&lt;span style=&quot;color: rgb(32, 33, 36); font-family: consolas, &amp;quot;lucida console&amp;quot;, &amp;quot;courier new&amp;quot;, monospace; text-align: left; background-color: rgb(255, 255, 255);&quot;&gt;#49fcd4&lt;/span&gt;" style="text;html=1;align=center;verticalAlign=middle;resizable=0;points=[];autosize=1;strokeColor=none;fillColor=none;" vertex="1" parent="1">
          <mxGeometry x="65" y="101" width="70" height="30" as="geometry" />
        </mxCell>
      </root>
    </mxGraphModel>
  </diagram>
  <diagram id="kXGYHOUkIGhtaFZOmvJZ" name="List with icons">
    <mxGraphModel dx="898" dy="429" grid="1" gridSize="10" guides="1" tooltips="1" connect="1" arrows="1" fold="1" page="1" pageScale="1" pageWidth="827" pageHeight="1169" math="0" shadow="0">
      <root>
        <mxCell id="0" />
        <mxCell id="1" parent="0" />
        <mxCell id="NE17KdItkLIfGXyRInoD-2" value="" style="shape=image;verticalLabelPosition=bottom;labelBackgroundColor=default;verticalAlign=top;aspect=fixed;imageAspect=0;image=data:image/png,iVBORw0KGgoAAAANSUhEUgAAAWQAAAKGCAYAAAB9f+E0AAAgAElEQVR4nOzdf2xTd543+rcT27i6rGo0rXA0XQ3eYW5rtj9wdqbgzHS4dQQVRnQvicoIR3RUTDsqCcy0SdkpSXlW1DCzTMLMBdK5S2PQtHLQ01GCFm6MShVXLLsOnZlN6LaL6QPFjNoq4ZZRjMiVvT62v/ePxJDYx4mT2D7Hzvsl5Y/Y58fnHDtvn/M53+NohBACRESkuAqlCyAionEMZCIilWAgExGpBAOZiEglGMhERCrBQCYiUgkGMhGRSjCQiYhUgoFMRKQSDGQiIpVgIBMRqQQDmYhIJRjIREQqwUAmIlIJBjIRkUowkImIVIKBTESkElqlCyg2IQQkSUIikYBer0dlZaXSJRERAQA0C+lfOEmSBEmSMHmTtVotdDodKip4skBEyloQgZxIJBCLxZBMJrNOo9PpoNfri1gVEdFUZR3IyWQSkiQhHo/nNL1Go4Fer4dWu+A6OUSkAmUbyLFYDJIkzWneyspK6HQ69peJqKjKLpDj8ThisRjysVnsLxNRMZVNICcSibujJ/KN/WUiKoaSD2QhBGKxWM594rlif5mICq2kA1mSJMRisaKuk/1lIiqUkgzkeDwOSZKmHcZWaFqtFnq9HhqNRrEaiKi8lFQgJ5NJxGKxgvSJ50qv10On0yldBhGVgZII5NTtznMdxlZoFRUV0Ol07C8T0byoPpDlbndWq8rKSuj1eg6TI6I5UW0g53K7s1rpdDrodDr2l4loVlQXyGrsE8+FRqO5G8xERLlQTSCrvU88VxUVFfyaTyLKiSoCuZT6xHPF27CJaCaKBnIp94nnirdhE1E2io3TSiaTiEajSq1eMakzgUWLFildChGpDM+fiYhUgoFMRKQSZXFr2e3/9REufvwxPvuqEC0QA0wrnsATf7cKD3+jAIsnIppQ4oEcxce/qUdd23ncLPSqlq7Bgd/3YFe1odBrIqIFqrRbFrfP43fFCGMAuHkee945j9vFWBcRLUilHchjtzFSzPX95TYW3rgQIiqWEm9ZTLXXP4bdT+Z3mR/9cjFq3fldJhGRnLIKZJqj6AgGTvWg74IfA9fCMK90ou6lejiWG5WujGhBKe2WBc1b+E8d2PBYA3qiFjTs9aDnvR64t1UhdLABG/b6EVa6wHJ2zYeOM6FZzRI60wHftQLVQ4rjEfICFv3Tfjh2Ah1/7Idt8sGw0YHGY3bYL4bAMSUFdGsILZeWoHmjOedZRi61YOjBZjiWF7AuUgwDecEKwbu3D/W/DUwN47sMsKy2FLsoogWNLYuF6mI32kwtcK2cy8xhBE91oGlzLWrX1WL7bg/82Ya7hAfgmTgtD1/zoXNHPWrX1aJ+R2f2ecaC6P1VE+rX1aJ2XT2ajvgQytY7CQfR++Z21K6rRe3mJnScCk7bZhn50IOWbbVTa7jig+di+lxhDJzwYEB2YSH4fuWDbLMhHkbw7L111G7bj94r6WNzwhg62YmOdwLAgBcdv+oY/5mufXFrCN1HOuAdAALvdNydR659MfJhZw6vTQi+EwPj+2rEf/d12f5mL4J3tzmM4Kn92D6xbzs/zPKCTX6NP+1Fx8SyarftR/ef5F+N7K2X7Ps9emXSsjc3ofNsqPxaakIhiURCjI2Nze/ns+PiWUBg4mevf57Lk/npb7u3fGw6Lj7PwzKj0ahSu/2uwUNWUdc9PPsZ7wSE+2m7aOweFKMRIYSIiNFgj2h92i4aT1/PnP4Lr6h72SsCxxuF62C/uD4aGZ9nqEs4lzeKvq8zKhPtq22i1TcsImJ8+cMDXaL5tR6RXm1kqF3UrW8VPcHRiQdGxeAxp7Ds7BOjGYVcF3077cL+Ro+4PLHOyNeDwvuKQzieltsXw8L7XJ3wfiG3EwLCDbcIpD8c8grn6jrR7rsshu9MrOOLPtG62iG6rqbVPjoqRn2tAq/3idHR0fGfO3LrmiBFxOjoqOh7HaLVN3p3noiUvo0O4TocEMORifWE+kTr03ZxdEhmG1a2i57TzcL5ilcMfh0RQoqI675WYVvfJa6PXhZdLzpFu/+6iEhCRL4OiPaNZtF4OnPPii+8ou45tzj6ikM4D/aL66ltD/UL90azcHZnvi8C+yDcA3IbmmW/D7UL2+pW0fdFasOGReB4s2juncN7WMUYyAsykCOi/7VsfxAzzWcWjXJ/BHcCwr1a5g/pC6+og020npOJyGN24XwvbVl/dAvTGxlRJ7O+ftG8ulUEMkIsIgL7bKLVH0lbl0PY9gVEJH1yIcTlt+z5CWQhhJAyH4r4W4V5n8zUA24BucenkT3Ixrex7p0sH4rru8TUZwLCDZNwZkwfEf2vmYR5vVsE0l+y4FFhf86b8cEovvCKupWNoickU9SdftEs88E720AePGASrRfkpi8vbFksSGGM3JjDbNe86Pi0Fc2bTJnPLbahcfcStJ8cynzuuSY0rc1sVJsfs6P7isxpenh0xhtwRs50Iry7BbbF6c8YYFu/Ad0Xg5MeG0D33iq0vGyTvUi5xJjH4X0yV2UMlmrYPgkV+CamAXQft6Ntq8wFwofsaHjAj6GMAprQlDG9ASusNbBudWVeW3ikGvbfh+RbNd+pQc0ymccX29HwUgA++d7PrITvlP9tWQzkBcowh+ET4eAQhtdWI9uYAKPVDvNAUP4PNlffdaJzrAX1v/AheCtrJRi8ANitWYLUZIY1OCkALwXQs9aBmgfmU9hsRREeCWLgw1543i3C8MFLAfSsrYFV9kkTqr7jR/DLQhchz/xIDQLX5vWugHVLJ6K767H/bBDheJ4KUyGOsliQTKj6DhC4EwVmMbAtOjYMs6kq+wTLzLCc8mMEyBraMzOj7ngA1rNedDy/An5jA9p2ueBcPfmoPIrwrQDc22rhyfYOfrR50uRRDH2nCjLH9fl3awjdv+2E5xMDbOvtsFutqH/RgNAfCxzJ0SiGTjaj9uJ9WSZYgbr1hS0hG+ODVRi6NM+j22V16Lpghe/dDjTs9sO4uQ1NLzphK8qLWjwM5AXKsrIR/ktBYK38MVVW8Uj258KjCK805GHsshHm9Y04ur4R0S8H4D1Yh5ruNngPOyYFfQ3a3umB86EcF1mM/517xYMNO0Jo7O5C/5SgGMF9xRgP8HwH+t+wFX49sxT+ehgmbR5GtBvNcOw8CsfOKEYueuHeVAPvHi+OzmIct9qxZbFAGW12VB/qgX8WBy6m71Qj8Ekoe3/3RhABm2UeR8eZDA/Z4Drsh9vQBM+HqTWbYLEGMBjMsXiTGXUXL8+vlTKjMHyHu+F4yw2HEkdtyyxwXij0Ns5N6EoA9Y/m9V0B02oXjn7ghuFVz6zew2rHQF6oHqhD424/2o7IXIRLGRvByNik37/rQMsHneiV7UVG4e/uhOM5O/L/DRgGmB+zInTr3lGmdX0LAm/35nahbJkFNV/3wp/lluOI7B+0CeZHAgjJrCB6KYBA5qMI3zJiScZFRgDxCKY5r8gPkx0Nyz3ovqiydBrzw3vMgbq0i7qmZXW4/IXMzr0RQOBqjstebEb1YyGEy2gwclkF8j77YixenN+fcv6mN+srXjR9Uo8Nvx7IvFAy4kPbZhc8lya/261o/G01PHs8k24eGBd614XtI264np7PqWkUA79uQ/enaQuPB+E7GYXdOunQc2UjOh7zwPXrocxmwI30kQBWuPaZsX+fB8HJHzCIIniyBU0HMuMVACzfq0fP6YEpZwThTz1o6x1FZifdCNPyoYyj9ui1XrS81AG/3AoeMMEeGp5VM8NksiM0LDeHEY7dTbi8pwW9GSNowgjdKHBqXfDg6Nm0gI2H0L1jO4YPNMGe9rYwP1aD4O/9U1+nER/aDg/C8GDasscG0LGnO+M9hys+eKN2WMuoj8we8oJmhvOdQZh/1YgaazOqvlcDhwUInvUh8IALR4/3wZ72ZjesbkWPthON62uAp+pR/eAwgr0BDDvaEDjumOeFMwNsW+wY3NuAmhEz7E+ZsQTDGDwbxIrXvWhdnjbtGz1oP+lGg60N5rV2mP9qFKELAwg94kL7XjMw6WjVuPEo+uMt2G6rgXl9PSwPDmPw7DCq3+jA0X0htMhUY9zYDPcHDVjhqIbzaTOiQz4M29rRuc8O36fdGbXbX+2Cf3M1Npyqg928BMNBH8KWVriPtcHjlGkmLK9H8+Ia1DgDcFmBwas16DhWN+0+NG9qhuHpGjQMuFCNQQS/14Gu5ybmWOaEt9uEjl01qFlcg3pLFfB1EL4/ReDY14lmuWFp+fKUExsMXjTY/VjyAzvMCMH/QQiW3f3wyg2TXNkIj60etY/1oe75ahhCfgwZXDh60I2RffVTg3qxDQ1rB9HmrMHwMjvs5iXA14PwXVmB1nda89oiU5pGCCGUWHEymUQkMs8Tua/eg/PhbTidn5Jmtuk4Pn93M5bOczFarRaLFi3KS0n5E0U4PHF0pzXCKHfqnT5HODx+9GgwwpjvbyGKhpEqx2A0Tn+hMB5FeOzuxNPXMmna1HJHTtajEZ3o2SIfhbPdztT0hsVGGHI45Lk7/UzbeW+OidfKAGOWgu7WPM00efNlN+pfBTrfc8KEWW7PWHj87Gy277libJcCSvsIefG38Iz7AFYXa33f+FYZf/vZ7N/guQfIHMwm5LWzqH02094tZXbbWejpc3mtCvrazGBW615snNU1ByW3qxhKO5DvX4Uf/2yV0lUQEeVFyQXy7X89iJfbZ//PRp/5xz7sqpZ75ibe//k2HL48ywXevwa7f7Mba74xy/mIiLIouUC+EtiH07KXrGeYb+nv8Ez7j/Hw/VMfv/2vv8PBo+fx0ayXeB5rdjKQy8Jic1ldGCo6rRHmXG/QoWmV3EW9j9u/je//480CVDRbS7H3Xz/Hbtmj7ump86IeESmt5MYhP/zDn+AJpYsAgMd/gjUrlC6CiMpJyQWy4cldeOuXz8x76Nm8LH0GB/7vXVhVzpd7iajoSq5lkRL96mN89F+f4bPLIzN+d27eGEx4eMXDWPnkE1g6jzBmy4KI5JRsIJcyBjIRySm5lgURUbliIBMRqQQDmYhIJRQLZI1Gg8rKSqVWr6iKCn4OElEmxS7qpcTjcUiShGQyqWQZRaHVaqHX66HRaJQuhYhUSPFATpEkCbFYTOkyCqKyshI6nW7BnhEQUW5UE8gAIIRALBZDPF4e/+dbo9FAr9dDqy25rwwhIgWoKpBTEokEJElCIpFQupQ50+l00Ov1SpdBRCVElYGcEo/HEYvFoOISM2i1Wuh0Ol64I6JZU3Ugp8RiMUiSpHQZ02KfmIjmqyQCGRi/1VqSJNX1l9knJqJ8KZlATkkkEojFYqoYJsc+MRHlU8kFcookSZAkSZH+MvvERFQIJRvIwPgwuVQwF0NFRQX0ej37xERUECUdyCnJZBKxWKxgw+Q0Gg10Oh10Ol1Blk9EBJRJIKcU4jbsVBDzdmciKrSyCuSUfNyGXVlZCb1ezz4xERVNWQYyMPfbsCsqKqDT6TiMjYiKrmwDOWU2/WW9Xs8+MREppuwDOWW6/jK/FpOI1GDBBHLK5P4yb3cmIjVZcIFMRKRWHEJARKQSDGQiIpVgIBMRqQQDmYhIJRjIREQqwUAmIlIJBjIRkUowkImIVIKBTESkEgxkIiKVYCATEakEA5mISCUYyEREKsFAJiJSCQYyEZFKMJCJiFSCgUxEpBIMZCIilWAgExGpBAOZiEglGMhERCrBQCYiUgkGMhGRSjCQiYhUgoFMRKQSDGQiIpXQKl1AsQkhIEkSEokE9Ho9KisrlS6JiAgAoBFCCKWLKBZJkiBJEiZvslarhU6nQ0UFTxaISFkLIpATiQRisRiSyWTWaXQ6HfR6fRGrIiKaqqwDOZlMQpIkxOPxnKbXaDTQ6/XQahdcJ4eIVKBsAzkWi0GSpDnNW1lZCZ1Ox/4yERVV2QVyPB5HLBZDPjaL/WUiKqayCeREInF39ES+sb9MRMVQ8oEshEAsFsu5TzxX7C8TUaGVdCBLkoRYLFbUdbK/TESFUpKBHI/HIUnStMPYCk2r1UKv10Oj0ShWAxGVl5IK5GQyiVgsVpA+8Vzp9XrodDqlyyCiMlASgZy63Xmuw9gKraKiAjqdjv1lIpoX1Qey3O3OalVZWQm9Xs9hckQ0J6oN5Fxud1YrnU4HnU7H/jIRzYrqAlmNfeK50Gg0d4OZiCgXqglktfeJ56qiooJf80lEOVFFIJdSn3iueBs2Ec1E0UAu5T7xXPE2bCLKRrFxWslkEtFoVKnVKyZ1JrBo0SKlSyEileH5MxGRSjCQiYhUooxvLYvixh/O4XzgBm5nm8RgwhPrnsGav7m/mIUREckq30AePIxa+z7cnGm6pS+hZ/AQnmEmE5HCyrZlcfPzSzOHMQAsXQYTw5iIVKBsA3nkzx/lNN0Tm9fgiQLXQkSUizIN5NsY+TKX4+Ol+PsaxjHN3siZFrScGVG6DCozZdpDHsXt/zeHyZb+BGueLHgxKhXGwAkPAreyPW9B3WsOmHNc2tBv69HyhQs9Bxww5qlCVRsLIZTxYBi+3fXwfOcoel60zG/5lzpRv3sYrvfccBR0h+axZpq3Mg3km7hxeuaplr64BqsKX4xKRRE668Poc62wPyD3fBWWTPk9jIETPcAmF2wLInGJiq88A/mrP+PSjBMtxU/sCzeOxxmxwmaH/aFcph0PcKyVD2Tryz3oz3d5JccIx8F+OPKxqJWN6DmXjwXNJI8107yVZw/55g3MeElv6Y+x6vFiFENElJuyPEK+PTKSw5C3f8HBzR/hoMwz9z++Cwfcz2BZ/ksrSdEv/fCe9MN/NQS81YHhJQBgRM2L946Wwxc96EE9XKszD5+jXw6g96QXPR8EEYYRlo0tcO+0ZfaawwPwXDDBtdGM8Ke96DzUCf+XRlg2NqLtZTtMWgDxEfh/60bnmSDCD9nR+Goj6h6dRQ8lHkbwgx54ft+NoS8BPGRH4+5m1D1iyDrLyIcetL87Pr1xeR0a9zZiRZZpQ2c6ELQ0w7F8yqPwnRhBzQs2GEf88BzqRvelEGC0oO6FZrjWm5Gx9vAAPKeA+hcy91P43zxwH79Xv+slF5yrTTPWjiz7a+aaB9D9tgeeC6Gsy7hXXBC9b3fC+0EQYaMFtu+Z77W+HqiBS2Z7aBKhkEQiIcbGxgry8+nbzwoA8/rZ6y9MbWNjYyIajSq12ycZFt7n6oT3ixwmjYyK0dHLomtTnej6ZFSMjo7/RCYvrbtO1HUPp88oAvscwvFKlwiEJqaXRsXgMacwv9Y/ZX4hhBBfeEXdy17Rf8gpnAf7xfU74+tOTT/6db9o3dIsvEPjy4oEe0TjaptoH8pxk0Ne4VxdJ9p9l8XwnYkKv+gTrasdouuq3AzXRd9Ou7C/0SMufz0x/deDwvuKQzietspsrxCBfRDugYxHhdvULNoPO4XjFa8Y/Dpyb1k7bcK2LyC/L57zivQ1jJ5uFOatXWJwoh7x9WXRd8Al2v84Xe2T1+cQ7gtT15a15pXtou+cW7he84rB4YllhPpEa7Z9ficg3OtdomtodPz3idfa/ka/GB4dFaOjGVtJacoykPvb5hfGWLpL9N1cGIE8OWDv/cj94Uwf4PKBLISQ5Ka+LrrWyyzrC6+og024L4xmTr/WLCwvesX1tOVFfI3CtC8gX5QcmXoi/lZhllnG9WMO+bAUQlx+yz67QIZDtP8xfbuEGN8XMgEnG8jDomdrnfCGZBYzi9pzr9kknMcuZywjcq5ZmA4MZixn8KBNNJ/LmFr0v1aX5QOP0pVhy+Im/vxf81vCs7/8Kdb8b/mpRt0C6NhVj+6Md0Ed2s81wpqPVci+w8yofioA35cA0i8oPtcE1w/ST2rNWPFUCA1rnTCnLc/wWA1qToQwAhvkT9pnrsdgqYbtt+nLGED33iq0fGLLbCcAWGKc7Yl3DWq+KzePGfUvroD9wyE0r8xlj4cxOtO31kb98By0wD0kX3vumtD0oiVjGQZLNWreDmIE1kn7awTBP1bD/mLG1FhhBTxDI3Atz+kVWtDKMJBHcCMwj9nXdeLAc0vzVo261aDtnR44cxplkQdjYYSuDSIYDCIQrMJ9TxdpvbKiCI+EEAwGcflPfoRRM/XpSwH0rHXAJzskML+MZgvwwTDCsM7QXzXBscOODTuaYDjQhobVJvnAvTIE31o7WhYXpNxpDCM8BqRvRCSOskyaQii/URa3RzCS05dYyHkCe3/+I17My6soQmc70bS5Ftv3eTEwfB/MTzeg4alcbznJs1tD6H5zO2o3t6D9bBCRJVbUv+jIPBuIRjH0narcjrrn64EqmG+Fkcu/azCsbkV/dwPu+6AZ1Y9tQNMRH0LhtImiUQxVLSnyxTMTbOuj6Pkw/XaZEPwno7BbeXSci/L73LrfhGVPAvjD7Gdd+rMD2PXk/E7yaLIw/BN3gXW+1zglIEaKfvQG4IoHG3aE0Njdhf4p+TCC+5CeagCK9f92bw0jZJjFB5TJBucbNjhfDyP4QSeavtcJ++970LxS2feu+YWjqN/cgKZ4B5o3WbAkHETPITcGXjiKruUzz0/lGMh4Art8X+HH/53l6X//J3xz82GZJ57FL15eM8+eG01xyYOWaDMCMn3I4gvDd7gbjrf64cjlYM1kRt3FywjBlvPt43OuLBQErPbZH41rjbCsb0XfWQ827PKizucar/UhM+ouFKf2KW4MYPCRNrgsIfjeDiBqqIJ1lxeu5RzolqsyDGQAhvtxf5YE+Pj6ednHV/3yH7D5mwWsaSGKRjH04BLZMI4U/d8pRhG+ZcQSuSPzeASR9MeWWVDzdRv811xwyRzdRaJAfj5lQuh5exiNh+dxCXX5CliH/PeO8R+yo97oQO8lF5pX5qPG3Ay824PqbT2wLgOsq4u33nJSfj3kad3EZx99nPnw43txYDu/9W16RpiWhTCc9cuIZDxggmPg8tQv4YmHMXBkO5rezfxqnsIywrR8CIPBqZ8E0Wu9aHmpA/6M6a1w7TNj/z4PgmNT5kDwZAtajs22fg88J4JpjZEwBt5sgOcpNxpyOaW/0Y22X/gxEp/6cPhsD7pfsOHeVwOZ4NzTgJ6X2+BL/0K6ER88Zwqz7w2LQzI9ZJqN8jxCziZ6BZdOpT+4FC+1/QSrlD+nVkAA7udr4cnyLqg70I/G76Z+M8DudGH/1g0IbbLDeMuPJc/3oXm6I6HlDWh/rgkbHvPD8Xw1qu6EELhiQP3edhx9wIXuPG/N9Aywv9oF/+ZqbDhVB7t5CYaDPoQtrXAfa4PHmRkkxo1H0R9vwXZbDczr62F5cBiDZ4dR/UYHOvdE0Tgms5qsnKj73hDczzYh/IhjfFm9AcDZCd9Oa24H28scaHikE41PtWHJU/WwPAiMhvwYiNeh75B96jJWNsN/ohttzhXofOTe9g5FHXAfLsw3V1hfaId5bS3+Zk8IodQHgckC+2NVMD/ViOZX6mBR4tpBCdEIIYQSK04mk4hEMk4UC2vwIL79w7R/67TpOD5/dzOKOdBNq9Vi0aJFRVxjHsWjCI9FAa0Rxlz/uKJhhKMAYIDRqPwnXzQ8PqLBsNgIQy6HJKltBmAwGufQqRjAfo0fdtEK21zWLyO1jFxeh9lMO3dRDPyiDaEt7XCmD1OKhjH0biPqP2nA4OEF8vWsc7SgjpBvfHw+7TsuVuHAa8UN45KnnUOoGoxQQQ7fNetQncs253P981xGPtY3o0udaI7XIyA3ZtRghPXFJjg1fgQPO2ArdC0lbAH1kG/js4+nXtB74ucH8BK/8Y1o/qJRRA3TxP61ywjutIJfgT+9BRTIV/DxmUm/Ln0Je19epYLhWERlYKUD9Wfb0PGnzPHc4U+70bRrAA2vsl0xk4XTsrh+Becn9SueaduFZ76hXDm0kBhgXFuEtoGSDFa09raj90gLaneHpiSL+alGNHd3wcI0ntGCuah389Q2fHvre+O/PHkA/+7fpdh/my7pi3pEVDALpGURxZX/mAhjLMWutpcUC2MiomwWSCDfxu2JdsXS7W/hH+xlffJIRCVqwbQs8JfP8P5/jODh76/BMoW/65gtCyKSs3ACWUUYyEQkZ4G0LIiI1I+BTESkEgxkIiKVUCyQNRoNKisrlVq9oioq+DlIRJkUu6iXEo/HIUkSksmkkmUUhVarhV6vh0ajUboUIlIhxQM5RZIkxGIxpcsoiMrKSuh0ugV7RkBEuVFNIAOAEAKxWAzxeHzmiUuARqOBXq+HVrtwvjKEiOZOVYGckkgkIEkSEomE0qXMmU6ng16vV7oMIiohqgzklHg8jlgsBhWXmEGr1UKn0/HCHRHNmqoDOSUWi0GSJKXLmBb7xEQ0XyURyMD4rdaSJKmuv8w+MRHlS8kEckoikUAsFlPFMDn2iYkon0oukFMkSYIkSYr0l9knJqJCKNlABsaHyaWCuRgqKiqg1+vZJyaigijpQE5JJpOIxWIFGyan0Wig0+mg0+kKsnwiIqBMAjmlELdhp4KYtzsTUaGVVSCn5OM27MrKSuj1evaJiahoyjKQgbnfhl1RUQGdTsdhbERUdGUbyCmz6S/r9Xr2iYlIMWUfyCnT9Zf5tZhEpAYLJpBTJveXebszEanJggtkIiK14hACIiKVYCATEakEA5mISCUYyEREKsFAJiJSCQYyEZFKMJCJiFSCgUxEpBIMZCIilWAgExGpBAOZiEglGMhERCrBQCYiUgkGMhGRSjCQiYhUgoFMRKQSDGQiIpVgIBMRqQQDmYhIJRjIREQqwUAmIlIJBjIRkUowkImIVIKBTESkEgxkIiKVYCATEakEA5mISCUYyEREKsFAJiJSCQYyEZFKMJCJiFSCgUxEpBIMZCIilWAgExGpBAOZiEglGMhERCrBQCYiUgmt0gUUmxACkiQhkUhAr9ejsrJS6ZKIiAAAGiGEULqIYpEkCZIkYfIma7Va6HQ6VFTwZIGIlLUgAjmRSCAWiyGZTGadRqfTQTeWWPUAACAASURBVK/XF7EqIqKpyjqQk8kkJElCPB7PaXqNRgO9Xg+tdsF1cohIBco2kGOxGCRJmtO8lZWV0Ol07C8TUVGVXSDH43HEYjHkY7PYXyaiYiqbQE4kEndHT+Qb+8tEVAwlH8hCCMRisZz7xHPF/jIRFVpJB7IkSYjFYkVdJ/vLRFQoJRnI8XgckiRNO4yt0LRaLfR6PTQajWI1EFF5KalATiaTiMViBekTz5Ver4dOp1O6DCIqAyURyKnbnec6jK3QKioqoNPp2F8monlRfSDL3e6sVpWVldDr9RwmR0RzotpAzuV2Z7XS6XTQ6XTsLxPRrKgukNXYJ54LjUZzN5iJiHKhmkBWe594rioqKvg1n0SUE1UEcin1ieeKt2ET0UwUDeRS7hPPFW/DJqJsFBunlUwmEY1GlVq9YlJnAosWLVK6FCJSGZ4/ExGpBAOZiEgleGtZTm7j49//T5z/KgrAANMPf4TN1fcrXRQRlRkGci7+8M/4/gv7Jj0QxrfGdmOVYgURUTliy4KISCUYyEREKsFApnkYQue6TgwpXUYJGDnTgpYzIzk/TgsTA3mS6O3buJ36+f+UrqbQwhg44cFAOIdJb/nQsq4enk/Tn4gi/EEYC280+RyMhRAam8XjtCAxkFMGD+Jvv/lNfDP18/hBfKx0TQUVReisj2FApCIcZZESB25O/v0meOSX8oAD7eccSldBVPZ4hExEpBIMZMpBCL5f+RCabpIRPzy7t6N2XS1qNzeh82xo+jOMET86d9SPT7+tBZ4P5S9shc5M9LnDQ/DsqEetXC87bd0dp4LIpTWeEr7oge8aAIQROtuJps21qF1Xj6YjfozE5WYYgOfEgPw6rvnQcWbaPZW7eBjBsx60bKud2E/70XtFfq/e3U/xEfiPNKE+Nf2n96oMf9qL/dtm2DZSFAOZcjCCod1DkI/MYQSONGDDwRFU7z6K/nP96HvLhSVnG2B/c0A2lENnmrBhTxDVe7zoP9eP/sONqPqgAbVHMsdrjFzqxuVrA9i/2wfzbi/6TnvR8OikZf1+O1a8NADzjvF19x9vRs2XHah5tgNDOfbHoyEffAMD8OxoQa/BAfc7/eg/7YHL4EHNLl9m8I6F4Mv2gXNrCC2X8jBq4kY3Gp5ywYcatBzuH9+v+6wYfKEenmuZk49c6kTgQx9anm/HyFNueM/1o2+vFYMvNsBzLYzg29vReNYI5+HxbWuId8hvGylqYQXy5WPY8O3FWLx44sd+DJ8pXVPJCwG2TvQdcsL6gAEAYHjACudhL1wDzei8lDb5NQ+a3q3B0eONsD00Pj0Wm+E44IXrQptM2PjRttMP+6FW2JcZYDAYYJi8rEMWeHvHn0sty7azC31bBtH4a/kPBDmdb/XBvK8LzU+bYTQAMBhhfdGN1mte+JUYlbbMCe+FHjSvt8C0ePwhw0MOtB2wYv/JAZkZhtB+KozGd9rhXGmEAYBhmQNt+yxoW9+AXks7vK/ZYV4MwGCE7ZV2NF/zwPdlEbeJZrSwAnksjPOTr9z9IcwjhHmrQc13jTKPm1H/4gp4P5x61Dtw0gP7HifMGdObYH/OCP9QZvpt2N0I2+L0R6PwH98P64FGWGUuTZu3tKC+1wPfrdy2om5XE+wPZG7Diqe6EbyR2zLyTma7DJZq2D4JyZ6tNO1wwqzNnL7G2gDXD9JfIwuqn+pFiIGsKgsrkKmojGYLcHV40ofeEAK9dtSslJ/e9Ncr4L82nPG4uUou8IMYOutAjdUg8xwAWFGz0YPBK7OvW32iCI8EMfBhLzzv+nkQUcY47I0K54EqmG9NvnEkiuilbjSvG8B9WWZZsTHX4XVRRC9VYYlcVk8wfacOwS9GAJhyrVhdbg2h+7ed8HxigG29HXarFfUvGhD6IyO5XDGQqXBuDSNkSG9OuNBxrhW2vKwgMu2z4VshVC3PdgStclc82LAjhMbuLvRP+TwZwX08Ri5b5dey+Op97Nm6ARueHf9xtr0/9YYPKppwKAhYzZOOT82wbPXjsswogdkzw7J1YJplhRH6BDD/9TSH0KoVhu9wNxxvueEo0YN7mpsyDOSPcfjUeZz3j/+c/s3HUOqazMIWQs/bw2jcaJ30mAn25yzwnMx99EN2Jtg3mdGZbVnXeuAZaURdln71vDxkhuVCCJnd7iiGLgTysIIowreMWJJxIRNAPDLDeQGVsvILZCoyDzwn0m/ECGPgzQZ4nnKjYfnUqY0bm9F0tQ0tpzJvnghfC83qZNy4qRUtV9vgPps25iA8gP1bPajZ2yAzmiMfLKjZ1IOef5v8URBG8O029IxW5WH5RpiWD2EwOPWjJnqtFy0vdcCfhzWQOrGHvKAF4H6+Fh65d8GjzfAecsx8OWxTKxq/NwT3s00IP+KA5cFhDPYGAGcnfDutyOzgmuE87oXp142osS1BTZ0FVRhG8OwQIuvd6HxtNhFqhvN4F3r3uFBzxAz702Yg5Id/qAqut31wPVqo/rERjt1u+LaswAarE3ZzFINnh1FzsBPutT4E382cw2SpwfDednRb3HCuNMzwuAH2V7vg31yNDafqYDcvwXDQh7ClFe5jbfA483QnIKmORgghlFhxMplEJFKAk68/HMRi++R/t7QX/al/t1SI5+ZAq9Vi0aJFc5xbvaLh8REVhsVGGHL5qI+GEZ44CMx5nhmXZYDRWKwLeVGEJzbAYDTKfPikTR0OI2owIr28bI/ffQ552D9UEkr0JeY/HVWjXEIpbQbZEJrjyvO3rNxXOqvwz7Z/pttvs96nVNJKM5D5T0eJqAzxoh4RkUowkImIVIKBTESkEgxkIiKVYCATEalEaY6yePIn+PcTxinD3lYp9RwRUZ6U340hJaBcbwwhovlhy4KISCUYyEREKsFAJiJSCcUCWaPRoLKyUqnVK6qigp+DRJRJsYt6KfF4HJIkIZlMKllGUWi1Wuj1emg0GqVLISIVUjyQUyRJQiwWU7qMgqisrIROp1uwZwRElBvVBDIACCEQi8UQj8eVLiUvNBoN9Ho9tNrSHO5NRMWlqkBOSSQSkCQJiURC6VLmTKfTQa/XK10GEZUQVQZySjweRywWg4pLzKDVaqHT6XjhjohmTdWBnBKLxSBJktJlTIt9YiKar5IIZGD8VmtJklTXX2afmIjypWQCOSWRSCAWi6limBz7xESUTyUXyCmSJEGSJEX6y+wTE1EhlGwgA+PD5FLBXAwVFRXQ6/XsExNRQZR0IKckk0nEYrGCDZPTaDTQ6XTQ6XQFWT4REVAmgZxSiNuwU0HM252JqNDKKpBT8nEbdmVlJfR6PfvERFQ0ZRnIwNxvw66oqIBOp+MwNiIqurIN5JTZ9Jf1ej37xESkmLIP5JTp+sv8WkwiUoMFE8gpk/vLvN2ZiNRkwQUyEZFacQgBEZFKMJCJiFSCgUxEpBIMZCIilWAgExGpBAOZiEglGMhERCrBQCYiUgkGMhGRSjCQiYhUgoFMRKQSDGQiIpVgIBMRqQQDmYhIJRjIREQqwUAmIlIJBjIRkUowkImIVIKBTESkEgxkIiKVYCATEakEA5mISCUYyEREKsFAJiJSCQYyEZFKMJCJiFSCgUxEpBIMZCIilWAgExGpBAOZiEglGMhERCrBQCYiUgkGMhGRSjCQiYhUgoFMRKQSDGQiIpVgIBMRqYRW6QKKTQgBSZKQSCSg1+tRWVmpdElERAAAjRBCKF1EsUiSBEmSMHmTtVotdDodKip4skBEyloQgZxIJBCLxZBMJrNOo9PpoNfri1gVEdFUZR3IyWQSkiQhHo/nNL1Go4Fer4dWu+A6OUSkAmUbyLFYDJIkzWneyspK6HQ69peJqKjKLpDj8ThisRjysVnsLxNRMZVNICcSibujJ/KN/WUiKoaSD2QhBGKxWM594rlif5mICq2kA1mSJMRisaKuk/1lIiqUkgzkeDwOSZKmHcZWaFqtFnq9HhqNRrEaiKi8lFQgJ5NJxGKxgvSJ50qv10On0yldBhGVgZII5NTtznMdxlZoFRUV0Ol07C8T0byoPpDlbndWq8rKSuj1eg6TI6I5UW0g53K7s1rpdDrodDr2l4loVlQXyGrsE8+FRqO5G8xERLlQTSCrvU88VxUVFfyaTyLKiSoCuZT6xHPF27CJaCaKBnIp94nnirdhE1E2io3TSiaTiEajSq1eMakzgUWLFildChGpDM+fiYhUgoFMRKQSDGQiIpVYIIF8E6d/tgG1jy/G4sWTfh6vxYafncZNpcsjIsKCCeQbuNJ1Hh9dT3v4+kc433UFNxSpiYhoqgUSyERE6rcgAjn61Z/x56zP/hl//mrhDb+bq5EzLWg5M6J0GVON+NDyqg8qq0oZ3BclrYwCOYqP2utR//P38PFfJh66/TF+t3MD/vbhbfhd1vl+h20P/y027DyGj1Lz3TyPw1v/DhvaP0L5RnUYAyc60PGr1I8HvR/64f9wCKGxaWYbC03/vBLiYYS+DGc8PPTbetTu8SHzmTLGfVHSyiaQb57aAec/vo/3j27D97/1KJxte1Bf/X00njifw0W7mzh/4lXUPlmPPW1OPPrtDdhz6jOc/0cndpwq10t+UYTO+jC6zArrd62wftcMI4DoiB8dm1eg9lUfQkqXWCjhAXhODDCcSkzoTAd815SuorDK4xvV//I+/qnlvUnBewOnf3N49su5+T4O/2bKA3iv5Z/wox8ewjPfmHeVKmTECpsd9ocmP2aHY0sjBt60o+mEBX0vmJUqbt6sL/egX+6JsRB8Z4ENL9iKXZJisu6LEjJyqQVDDzbDsVzpSgqnDI6Qo/jo7X04VqgD2ZvHsO/tcm5dyDHAtsWF6IdD7EUSFVHpB/JfzuEd98cFXcXH7ndw7i8zT1dWtPfBONvvGrkVhO9EC7avq0Xtulpsf7MXwSz95tAZDwbCAOIjGDi5f2Ke7dh/Kjh9K2HED8/u7ahdV4vazU3o/DD7R0b4ogeei5OXFsXIBx50vNWH0NU+HE31z3NuX4QRPNWBps3j21e/oxP+bKtPq7Njmu1SZl/ce3y8DRBG8NTEutOXNeJH5476e6/pdEWFg+h9c+btnrze0NnOiX1aj6YjfozE0ya+NYTuIx3wDgCBd+5d95jSvrjmQ8cZ+SZbtm2fvN/9R5pQv64Wtdv2o/fTe9OGP+3F/m3T1JZvQiGJREKMjY3N++er914SAHL4WSaedfeI//j8K/HVV1+Jrz7/D9HjflYsy2leiM3vfp6XesfGxkQ0GlVqt08yLLzP1QnvF/LPXj/mEI7j1zPn6q4Tdd3DmdN3O4XtuXbRFxwWEUkIISJi2NcqbOu7ROZShAjss4p2X79wv9AsvEMT89y5LvpetwnboUH5mk43CvvTraInODr+QGRUDHY3C8d6u7A+5xXpVcnVGhkdFaOfdIm6TV3i8uioGB0dFaOjEfmdMNmdQdG+0SJchwPi+p2JZYX6hXujM2MfXn/PJSwb3aI/NLHcO9dF4LBLWDa2i8E76tkXqccb3+kX7Vucot1/XUQkISJfD4qurWbRfG5UjJ5rFc5XvGLw64gQUkRc7m0UttXtQq6qyFC7qFufVtMxp7Ds7BOjsusNiK6XXaLdf12MRu5Nb345bXopIkZHR0Xf6xCtvtRrNjrxPpsw4BbYF5DdV9m2PbDPKtp7+0TzlmbhHRoVESFEJNQnWlc7RNfVUXH5mEs4D/aPv96RURE45MisLc9KPpDHwp+LvhmDdZXY+8FXsvPf8u8Vq2YM8j7xeTg/Yay2QO765N4bfHR0VAwH+4X3dYewvNAjG6TZ3txCynxIiIjof90s3AOZzwT2QZi2donL6QEV6RfNJnfmH/zVLuFY7RYBmUATwaPCPosQEl94RZ3M9NlFRP9rZuHsltsjcnW2i0GZ/XG92yls+wIiPf6V3BfD3XUCq90ikJ4yV7uEfblFuN5J3+aI6NtpynxN7/SL5tWtMjVFRGCfTbT6p271+HpbRf/X6dNfF11rnaJH5sUJ7IPse0kIMcdAhjBt9Yrraa9V5FyzMC13CPeF9J1yWRxdm/0gJh9Kv2WhXYo1P+vGp5/3YNfj8pOs+uUh7LbdL/uc4cndOPTLVfIzPr4LPZ9/iu6frcHS8rj8mSaAjl31qN9876dhVxvaLlbBtbYK983m9Ex2/xiwwmrDYEj+VLpphwuWxemzrED1U4MIfjn14YGTbaja3Qhb+vQAsHgJjLModdauedHxaSvcW2a6wBmF//h+WA80wiqzP8xbWlDf64HvVuZzSu6Lul0u2NJnWr4C9msNcG1N32YDqm01Ga/pyJlOhHe3yNRkgG39BnRfDMqstwn2B9IfNWPFU90IFun22aYdTpjTXiuDpRo11ga4fpC+UyyofqoXobTXI59KP5BTlppglL2wtwbPO56YdtYnHM9jjdwT/2mEcWkealOtGrS904/+c5N/Arh+rh12eNGwbj8G5jLmOBrGyJUB+E954P0wH4PLhhDotcORkRrFEQ4OYXhtNWYebxLE0FkHaqyGLM9bUbPRg8Er86lG2X0hL4zBC4DdmqUmkxnWYIgXiHNQRsd9UcgPOL4f9830XfCL7oP88fMCpTXCuuUousY2oOn3oZyHvoX/1I3OtzwYNNjgWGtHtbUeLkMIgXlnchTRSytQZZrvcua49rFhmE1VuUyJ6KUqLJkmK03fqUPwixEAc90YZfeFvCjCtwJwb6uFJ1uiPNpc1IpKVRkFsgFYCplQvo3If88w639HcLswRZU082M18H0wAuRybHhiA5quNsJ7rB+tk99VI/chP3dgRPKxkCKYvs7wrRCqlmc7gs7POpRRg7Z3euB8aOYpKbvyaVncHEFYtr1wHsdOTz8s7uPTx3Be7onHwwiX6416uYjn+Icf9qHzpANHDzhgKshHvAnmTQO4rNBdWiZzNQJDl3MYi26GZet0dYYR+gQw//V82g3K7gt5JlisAQwGF9Zo/UIo/UCO38T53zjx6Lfrcfg/5Sf5uO1VHByQPwa+PXAQr7ZlCez/PIz6bz8K52/O42ahxx+qThQD5/xo/YF15knHwhg2LsESueci+TiaM8Py1Ch6P8xyM3euHxxztdKOpg+6ZS/GTWWCfZMZnScH5MP7Wg88I42oWzmfYhTeF1lY17cg8Havcn1ikxl1V4dl1h9C4ELpfAlAyQfy7XP/hA1tp2f4TuOPsG/t9+H8zfv47OZt3L59G7dvfob3f+PE99fuw0fTznsDp9s24PUzC+dQOXprCN2vbkBb3I2Wp3M4vX7ABMvQIC5PuQAYRehUC7b/yp+Xmqxb3TAfbIPnytSoi17pRstuz+y+d+MBE8xXhzGc6/QGGxr3GdDyqifjpojwp93ovnivJuOmVrRcbYP7bFo0hAewf6sHNXsbcmgATS+v+yJfVjai4zEPXL8eyuxQ3QjlpSaTyY7QcJb+1zILaj7xwj85COIj8O3txOBi2UMFVSr5HvL9q/4P/BjHpvk2t5QbON1Wj9Ntc1nLj/F//rAch1sE4H5+6oWY4eEIqr63Aa6XvOhfnXnlyGSpwfDednRb3HCunAhrgx0tb/lRb9uA3k12mP9qGMEPwrC87kbXXg/q8/HX+IADRz+IomVbNWqWOVBvqcLwkA/D1lZ0HG5DdNcsGtUGOxq27UeDI4S6p40IX1iChtPNmO6bLYwbj2JwSQdcT62AYb0L1Q+OInRhAKFHXGjfO/lDywzn8S707nGh5ogZ9qfNQMgP/1AVXG/74Hp0vv1j5Hdf5I0Btjd60H7SjQZbG8xr7TD/1eR9ZAbkhunNgnlTMwxP16BhwIVqDCL4vQ50PZd6j1rReKIG9WtXoG+TC9WGEPyXDHAdbof7yzbUfzHvDSwKjRBCKLHiZDKJSF5OZ6P46Je1qC3g7dNPtPWj/+erkIc/JQCAVqvFokUzDf1Qr2g4jKjBCGP6DolHER6LAjDAmPFkntcPAHI1zMZYGOE4YFhshGEWhyY5rz8aRnh8woLtj7zti3y6+z5AAeqKIhye5j1WpPdgoZRBIAP4y/t49cn6wnzB0NKX0POH/H7bW6kHMhEVRsn3kAEA33gG/+PIS7jXVFiGZ3+2C8/Mtsuw9Bns+tmzWHbvAbx05H+U6VdvEpHalMcRMoDx/xjSgD3/tQZ7f7kLa5YCuP0Z3vvFq3j96ExfUr8Ua5p+gUOvb8bD9wO4+RF+9+uDOP3Abnhb8teqSOERMhHJKaNAnsbN99D47Wz/xukldP/5EJ4t4lEwA5mI5JRHy2ImS7+Fb2V90oSlbEkQkQosjEAmIioBCySQl+GJnz2LNSvSrvL9zSqs2f7IpIt4RETKWRg9ZJVhD5mI5CyQI2QiIvVjIBMRqQQDmYhIJRjIREQqoVggazQaVFZWKrV6RVVU8HOQiDIpNsoiJR6PQ5IkJJNJJcsoCq1WC71eD41Go3QpRKRCigdyiiRJiMViSpdREJWVldDpdAv2jICIcqOaQAYAIQRisRji8fL4f0kajQZ6vR5abcn/HwAiKgJVBXJKIpGAJElIJBJKlzJnOp0Oer1e6TKIqISoMpBT4vE4YrEYVFxiBq1WC51Oxwt3RDRrqg7klFgsBkmSlC5jWuwTE9F8lUQgA+PffSFJkur6y+wTE1G+lEwgpyQSCcRiMVUMk2OfmIjyqeQCOUWSJEiSpEh/mX1iIiqEkg1kYHyYXCqYi6GiogJ6vZ59YiIqiJIO5JRkMolYLFawYXIajQY6nQ46na4gyyciAsokkFMKcRt2Koh5uzMRFVpZBXJKPm7DrqyshF6vZ5+YiIqmLAMZmPtt2BUVFdDpdBzGRkRFV7aBnDKb/rJer2efmIgUU/aBnDJdf5lfi0lEarBgAjllcn+ZtzsTkZosuEAmIlIrDiEgIlIJBjIRkUowkImIVIKBTESkEgxkIiKVYCATEakEA5mISCUYyEREKsFAJiJSCQYyEZFKMJCJiFSCgUxEpBIMZCIilWAgExGpBAOZiEglGMhERCrBQCYiUgkGMhGRSjCQiYhUgoFMRKQSDGQiIpVgIBMRqQQDmYhIJRjIREQqwUAmIlIJBjIRkUowkImIVIKBTESkEgxkIiKVYCATEakEA5mISCUYyEREKsFAJiJSCQYyEZFKMJCJiFSCgUxEpBIMZCIildAqXUCxCSEgSRISiQT0ej0qKyuVLomICACgEUIIpYsoFkmSIEkSJm+yVquFTqdDRQVPFohIWQsikBOJBGKxGJLJZNZpdDod9Hp9EasiIpqqrAM5mUxCkiTE4/GcptdoNNDr9dBqF1wnh4hUoGwDORaLQZKkOc1bWVkJnU7H/jIRFVXZBXI8HkcsFkM+Nov9ZSIqprIJ5EQicXf0RL6xv0xExVDygSyEQCwWy7lPPFfsLxNRoZV0IEuShFgsVtR1sr9MRIVSkoEcj8chSdK0w9gKTavVQq/XQ6PRKFYDEZWXkgrkZDKJWCxWkD7xXOn1euh0OqXLIKIyUBKBnLrdea7D2AqtoqICOp2O/WUimhfVB7Lc7c5qVVlZCb1ez2FyRDQnqg3kXG53ViudTgedTsf+MhHNiuoCWY194rnQaDR3g5mIKBeqCWS194nnqqKigl/zSUQ5UUUgl1KfeK54GzYRzUTRQC7lPvFc8TZsIspGsXFayWQS0WhUqdUrJnUmsGjRIqVLISKV4fkzEZFKMJCJiFRi4dxaFr2NG//rEv4cBqLRKAwGA2D8Flb+78twv0Hp4oiIFkAg377+Pn735h78X7//DDdlp1iKh5/7KQ688WM88zf3F7k6IqJ7FBtlkUwmEYlECriG2zjvdmLbL89nCeJ0S7Hm58fR3bYGhY5lrVbLi3pElKE8Azl+A++9XIttJ3OL4smWbjmO/t9uxrICnjswkIlIThle1Jt7GAPAzZPbUPvye7iR56qIStXQkVp0/mn+yxk504KWMyPzX1AZK7tAvnlqH16fYxjfXcbJ17Hv1PyWoX5hDJzwYCCsdB3KG/ptPWr3+MBdIS8a9iOcj/+QNhZCaCwPyylj5RXI0fP455b3pukZL8OqrbtwwH0Au7auwrKs093Eey3/jPNlfd9KFKGzPv6BEKlIWY2yuO3/FxzMksZLt3TC1/5jPHz3it0uHPjlZ/jdz+vR+K5Mg+LmQfyL/6dY4+DIi3JnfbkH/UoXQYSyOkKO4lLgmPxT6zrR//bkMJ5w/8P48W//H3Suk5/tWOASyvogmYhUpYwCeQQ3/lP+mV1NP5qmPbEMP2raJf/Uf94AL0FMMuKHZ/d21K6rRe3mJnScCmbtu4YveuC7BiAegu/N8XnazqZNHQ6i982Zl3d3WQgjeGo/tk9M3/nhpFdnxI/OHfWoXVeL7W/2IjiLhnD4ogeei5kzhM5M9NjjI/CfaBlf77p6NB3J3uqJXulFx0QdtZub0Hk2lLlN13zoOBOaey1HmlC/rha12/aj99N704Y/7cX+baka/RiZdd83jOCpDjRtrs19P4aD6P3VRD3rtqPlxFzWO27kQw9ato2vu35Hx5RtS3d3f4SH4NlRj9p19fB8Orf1qopQSCKREGNjY3n86Rd7AYGMn2fF8c9mmPez4+JZ2Xn3iv681jj+E41GldrtkwwL73N1wvtFblNff88lLBvdoj8UGX/gznUROOwSlo3tYvCOzNK760Sz77LwvtIsvEOjIhKJiIh07/nIULuoW98qeoKjEw+MisFjTmHZ2SdGZZbV+E6/aN/iFO3+6yIiCRH5elB0bTWL5nOjYvRcq3C+4hWDX0eEkCLicm+jsK1uF4O57onuOlHXPZzxeGCfSTQfOiqcGye2IVVnd6OwrXaLQPp2D7UL2+pW0ffFxD6KDIvA8WbR3Ju27AG3wL7ALGuxivbePtG85V4tkVCfaF3tEF1XR8XlYy7hPNgvrt8ZrzFwyCHML2fuy6zuDIr2jRbhOhwQw6nyQ/2ifYtD2FdDuAcyZ4kMuIX9+xtzQwAAG45JREFU6cYp++Zyb6uwP90o+kK5b5sQ10XPCxbhODBRvxAiEgqIoy9YhOPQoIjIzBHYZxddfwwI94vj78lIJCI7XalhIDOQZ3a1SzhWt4tBKfOp691OYdsXyPhjGO6uEyaTU3hl/jDFnX7RvLo1M9BERAT22USrf+rShrvrBFa7RSA9Xa52Cftyi3C9cz1jOX07TbIhIid7CEI4Dg7Khtr1Yw5hOzQ18gcPmETrhRxWOKdAhjBt9Yrraa9B5FyzMC13CPeF9Covi6Nrc/3AjYj+18zC2Z2+H8ef69spE8h3+kXz8kbRI5OvkQG3sD3nFelPZdu268ccwnZQ7uPzuvButQn3QGbUBvZBmOQ+FEtcGbUsDDA8Lvf4aVz6bPpOcPSzSzgt98TjBvBrLqLwH98P64FGWGUuAZu3tKC+1wPfrcznql5tgVOmVzRyphPh3S2wLU5/xgDb+g3ovhjMmKdulws2Y9qDy1fAfq0Brq3mjOVU22owGJp/w6nmKSvSVwsA5k0urHjHj6G0x8N3CnfVoWmHE+a018BgqUaNtQGuH6RXaUH1U70IfZnDgr/sRecHjWjZkr4fAcCAJQ9mPhr6fQeCe5pRZ5KZY3UjWha3w3sph3VH/fActMK90yrzpBnOV+vRc0x+SOKG3Y0y76HSVkaB/DCesMs/c9h9DB9nne8G/ufRw/JP2Z/Aw3morLQFMXTWgRprto8mK2o2ejB4JfMZ80NVMtOHMXgBsFvlYg6AyQxrMKT+3v0DZlgQwvCkpLBu6UR0dz32nw3mZ9xukYSHAghstkMuErPMgeAfh2G3ygU4ABhhfdqMwCfyffIprgzBt7YG1dneXitr4DgxiMyPaMBcleU9VMLKaNibAavW7cbS3xzMHIf8hz2oe/H+tGFvAG5/ht+1ONB4Tm55S7F73SoeISOK6KUqLJnmvW/6Th2CX4wAkDlcklle+FYA7m218GR79z3aPIc6i60KVd8ZRngMuHsIvawOXRes8L3bgYbdfhg3t6HpRSdsuewWBUXHhlGzTO7DM+scCN8yo+qB7FOYzRb0fjgCIFtopxYVxVDVEtmzkHEmrNgUROhLwPbQLEosUWUUyIDhh3+Pnz55EHv+kPnczZON+LuTv8Kqrc/i7x82YeSzf8Hpdz/Kfov04z/F3/+QcTxu+u8cCd8KoWr5bPZVDdre6YGzpP/AhjF81ZDRQoDRDMfOo3DsjGLkohfuTTXw7vHi6MYZgklp8Tl8r8w0ZwHh0TCsi3N8T0z7f43DGA5VwVJmrYlsyqhlAQBP4KW2XVia9fkb+Ojdw9jTtgeHpwtjLMUu90t4ohAllhwzLFsHcPlatufDCH0CmP8619NHEyzWAAaDJT7C+1YIQVTDnPXo1wDTaheOfuCG4VUP/CreXNNfW9D7SWgWY+4nXsOr2ecIXQmgZnkOH0LLLHBevIyszY1bIQRhRhl2J2SVWSADBvs/4K3t2SM5F0u3/Bo/tfPoeJwJ9k1mdJ4ckP+DvdYDz0gj6lbmvkTr+hYE3u5Vf594GqFTHgzvqpu577rYjOrHQghPviplMqPu6rDM9ocQuJBD3zXfHq1B47s+BLKMrZb7Ukbr+hb4s72GY354jzlQtzaHFDXZUf9QJ7ovyod7zvu5TJRdIAP345nXfo3Nc83kpZvx6398dpqj7IXHuKkVLVfb4D6b9ucXHsD+rR7U7G2YqVM41cpGdDzmgevXQ5lXz2+Esh8tKcBzzJNxc0T43/aj4XgN3JNHJYwNoGNPd+aNFFd88EbtsE4+kl5mQc0nXvgnn6LFR+Db24nBxUvyvAU5MDrg2h1A2wF/2usRxsAvtmP/hzLzrGxE52MeNL+ddjNPPITuHdsxvM+F3I5pjKjb24LLe9zwpb+9JvZz23Mqb/fkUVn1kO/65rP4RftmnN863RcNyVmKze2/wLPfLFBdqhOA+/ksF9cebYb3kGPiMp0ZzuNd6N3jQs0RM+xPm4GQH/6hKrje9sH16GzPJgywvdGD9pNuNNjaYF5rh/mvRhG6MIDQIy607zUDKukZOjfVYGjfBjSFLXBYqjA81IMAGtB5thFTBp4stqFh7SDanDUYXmaH3bwE+HoQvisr0PpOa9oHlhWNJ2pQv3YF+ja5UG0IwX/JANfhdri/bEP9F8XdRgCwvuJD5xEXah7rgH2THWaM19RwoB3thkH4MuYYfw0NRxrhsAE1ddWo+jqIngvD2LA3AO/6zF6OyVKD4b3t6La44Vw5aectc8J7vBct22rQucwOuxkIXfBj0OSC56xrwfSPgXL9gvr/v737j2nrvNcA/hj7nHpar0q1TBBtUmDrfiS3a0KrhUDXi2aURDi3uYpRmEaURYUkug0UdYVFW0jRxGhWpZA7paHSTSFRWkF0maB3yYUojXBv1hWS3g2SrCvrumGqtiIomXAUJqxzbL/3j+AE/8BgYvu8tp+PlD9yfM57Xp9jP/b5nvc1AIBbOP/84yjvWHok5+zuxcivNvMvhkTjccPtAQArsrPjUNbxeuCembtctWYjHk3Gy/AvTHBuFGjcgHvP25KN7EUCwuN2z5V3FjlGd597nI5lPCzn/M47h9bs7KgjkzxuNzxRzvPdY7eE45yO0jiQAfzjMpo3luLwAr9xESSnDv3XDqHki4ntEpDigZxBggKZKAnSsIY8zxcLsf9XTShcdMVCNJ1uSkoYExEtJL0DGYB1fR0OHYweyYUHD6FuvSSXjESUsdI+kAErCp8/gqb1Czy8vglHnueMPApnzbYhOz1ve5Ok0ruGPN+1oygtPoDLQQsL0fTbfuxfcCJ9YrCGTESRZMA35DmP1eHIy8Gli8KXjyQ9jImIFpI5gQxgbW3nvT/XtKkdnbWcHE1E8sickkXArQlcvPwJVhWWIM+gv1/KkgURRZJ5gSwBBjIRRZJRJQsiIpkxkImIJMFAJiKShGGBbDKZYDabjdq9obKy+DlIROEMu6kX4PV6oes6/H6/kd1ICovFAlVVYTKZjO4KEUnI8EAO0HUdmqYZ3Y2EMJvNUBQlY68IiGhppAlkABBCQNM0eL0p9DfUozCZTFBVFRYLfxCBiBYnVSAH+Hw+6LoOn89ndFeWTVEUqKpqdDeIKIVIGcgBXq8XmqZB4i6GsVgsUBSFN+6IKGZSB3KApmnQdd3obkTFOjER3a+UCGTgzlRrXdelqy+zTkxE8ZIygRzg8/mgaZoUw+RYJyaieEq5QA7QdR26rhtSX2admIgSIWUDGbgzTC4QzMmQlZUFVVVZJyaihEjpQA7w+/3QNC1hw+RMJhMURYGiKAlpn4gISJNADkjENOxAEHO6MxElWloFckA8pmGbzWaoqso6MRElTVoGMrD8adhZWVlQFIXD2Igo6dI2kANiqS+rqso6MREZJu0DOSBafZk/i0lEMsiYQA6YX1/mdGcikknGBTIRkaw4hICISBIMZCIiSTCQiYgkwUAmIpIEA5mISBIMZCIiSTCQiYgkwUAmIpIEA5mISBIMZCIiSTCQiYgkwUAmIpIEA5mISBIMZCIiSTCQiYgkwUAmIpIEA5mISBIMZCIiSTCQiYgkwUAmIpIEA5mISBIMZCIiSTCQiYgkwUAmIpIEA5mISBIMZCIiSTCQiYgkwUAmIpIEA5mISBIMZCIiSTCQiYgkwUAmIpIEA5mISBIMZCIiSTCQiYgkwUAmIpIEA5mISBIWozuQbEII6LoOn88HVVVhNpuN7hIREQDAJIQQRnciWXRdh67rmP+ULRYLFEVBVhYvFojIWBkRyD6fD5qmwe/3L7iOoihQVTWJvSIiCpbWgez3+6HrOrxe75LWN5lMUFUVFkvGVXKISAJpG8iapkHX9WVtazaboSgK68tElFRpF8herxeapiEeT4v1ZSJKprQJZJ/Pd3f0RLyxvkxEyZDygSyEgKZpS64TLxfry0SUaCkdyLquQ9O0pO6T9WUiSpSUDGSv1wtd16MOY0s0i8UCVVVhMpkM6wMRpZeUCmS/3w9N0xJSJ14uVVWhKIrR3SCiNJASgRyY7rzcYWyJlpWVBUVRWF8movsifSBHmu4sK7PZDFVVOUyOiJZF2kBeynRnWSmKAkVRWF8mophIF8gy1omXw2Qy3Q1mIqKlkCaQZa8TL1dWVhZ/5pOIlkSKQE6lOvFycRo2ES3G0EBO5TrxcnEaNhEtxLBxWn6/Hx6Px6jdGyZwJfDAAw8Y3RUikgyvn4mIJMFAJiKSREYHsufaGfT89iPcyrzKCRFJKIMDeQpnXqlElf0JfGXF1/FExQs4evYjMJuJyCiZG8h/v4yLbwX+M4WPBo7jQM9V3DKyT0SU0TI2kG9d/l+cCllWYluPHEN6Q0SUsYHswZWh4yHL1mLzE3mG9CZtXB9AwwsDuB7LJmcb0HA2li2I0leGBvJVXD4dsuixH6DkMUM6YxA3hk+2wzkRbZVhdJ4chjt0+ZV2lG86iIHQB7xuuD4LWzu6GRdcM7FtQhTVzQE0bCpH5wdGdyR2aRfIt4Z7cOYvi9yau3YZv5kKXpSztRBr5/1/wnkKFz+Je/ck4oHrXC12HB4ID9yAGRcGzrl4ozNu3Bg+2YnhGD+zKIK/DqDtrMvoXsRdWgXyxMALcGysQmXZPvRECdOJP5zH1ZBlP1h/L45vOZtRvbUGW2xVOLVYuKe0RjR8ow0tF2J8jutq0Pt2C+zZielV+vLAdW6AVwTxcHMUDVcWKHWtsKP17V5UP5rcLsVD2gTyxOkqlFYcx2UAmOpB1dM1OBMxlCdw8a2LIcv2ouQJKwDA8/5hOLYevttOTdkOHL2WrqH8BRTvaYH11TaMputTJEohaRDIHlw9Vo7SPT0IqkKMn0LlM8fxUejqn7+P886QZds2YN1DAKbOoP6HzXfCOGDqPA4Ub8Hh4XQcEDeJaW8RGvZMouXNGC7/Fqotz1/lgz607StH6aZSlFa9hO7fL3ad7obrXDtqK0pRuqkcta86cd279C4BHly/1H1vnxW1aP/dAvt0D6Nz7nLX/UEfXqqKsE/vdThfrUX5XP/7Poje/+vvBPpeit37O+EM+fLm+cyJzleOof9jF/pfa0PbK21oeyVK+WJmFN2vRznGnznR/uux8HKSewx9v9h99xi0vTUWsQ33pU4M/BWI+bgvsX3X2bnn5r2O4dMvYfemUpRu2o2XFlj/jqWcQzdGT7ej7Y0hYLhr7ji2hZQvXBh4ZQCRXtHu33Wioar03uvykmQ3lIVBfD6fmJmZuc9/n4vBn5eIHEAg9F9OiWi68HnYNp/37A1bd+vJv809flP84dWKyO2hUOzt+SAOfZ4RHo/HqMM+z6To2u4QXZ8KIcS46ChziC5XyCqfdgnH9i4xGbpptOXbGkXrj+2i8vCgGL99Z/Gsa1C0PJ0vKrvHw3vR7RCO1/pFx7PVotU5LqZnhRCz02LkeKXIf7ZfTC/lqdweEi1ldlF/YkiMT8/eWXZjRHTszBf1b8+Gr/9pl3A82yUGj1Te62dgnz8ZFNM3BkXjD+tF1+i0mBVCzI71ipoNRaJ1NNLOx0X/c3ZRfXRITM4Gnm+/aPy+TRybv/7stJie/lB0bHOIjj9Oi+npO/8i9C5wZETXdrvo+DjyoyNHikSjM3jr2dFW4ShrFL1j03f3OXK8Uqx+Lvw4TnY7RM0bQzEd91jaH2ouEK0Dg6LlmXrRNTopZnUhxO1x0f+zIlF0ZCS88RjO4ez0tJgeaBT4Wf/d4zh9O2jvogUtYihkF9NnakT+zg4xcmNuwY0PRf+hatH6fxGerEFSOJA/F/0NhRGCEwJf2yXaR25G2Oam6H8+dP0S0X4teL0PevaKwoihnCd2nbz/UJYvkIUQo63CFvpGXE4gr6sRvaHBLoQQtwdF/SM1ov9G8OLJbofAhkYxeCN0g3HRsbFS9IbtZAF6hGUfdwj7Qv1EkWh5NzRGxkXHxnyxek+XGA9pb3agRuQ2h77FhRg/bheON8I/aMSnXcJR1iGCHwk55ouY7qsW9hMR2hYjonVDoxicn1O3B0X9hkYxdDt03Vkx1Bwe3jEf9xjbH2qGyN3ZIT4MXX92UNTntogIkRzbORxuEYhwPub2HiGQJ0XvzghfOiSToiWLCZx59klsab0c/tD6/eh/px27vmkNf8xzGRfDhrttxrqvBS/Ksx9B/9AhbA6bJTKBU8+UoupkGk6xXleDlhUtsd/gC/WNYhRHGs79oA079g5hIMI1uqOuFrYVoUvzseapboxFG5Y3X6Qfkn3kcRS/64p46Yrttaj+XuhdyXysecqFHVWVyA9pz/qdYhT/0RUyxnoY3SdsOLgzP7z9r9qwY4UTo/dxRZz9fQfyj/ZhNPSBK044HeWwzXuJXz/bDvf+BhQ9GLqyFUVlW9B9aSys/ViO+3Lar91XjdWh61vX4PGnRjD2WdjqsZ/DmLkxLfkbN/UC2TuBnj2lqHwz/J2aYz+E9842oeRLC2x77TJOLTLcLcD6WB16nSew62uhj0yh5zk7dhy7mmahbEXR/hbgl4m7wZf/7WIM/TXxQ5U8bhdG3xlA96u9+DA3gTu6MoTejcUoiPhgLlZ+wxk5eJYq2wZHWS+cV4IXD5/thW3j/L26MfIuYCtYYNhLbj4KxkI/TGKR6PbDxf8c5sK+z4a+fbXovHRd2veuYT9Qv1xXj/0rqk5PhT/wzSZ0d9dhbZRndPX93wTf+EMOdhVHiuM5qyrQfnYWs/9cg56gB6Zw/qcOHH7sT2j6lwjfxFPVgzY0PNuJmjdd6N0T4Vvffcr+8kqMXknQW2HGhYGTbeg860H+0zbYvlsA2858zL7Tl5j9AYDHg9HT9Si99IUFVlgDR9n97MAK29YtOHhhFPXr5gLY40T/cDWqXwzqCNw3h9BSVYrOhV7/j9bfRz8S3f6cBJ9D64ZGDHYPo/v1ejy+xw3b3hrU77QjX6LhmykXyGtr/wcn/lQaHsp/aUZlpRV9J+uw9ouRtpzAlbfDRh+jZH2UQP2kBzVPh4YxAORg88t92J9OYTwnd3sL7PYGdJf1otJihTWO3yXcNyaRa0nAMbvpRENFJ1YfbUfvc/PfXdfxhUS/wn/UhsEXixLX/gY7yn88gOGfFKAIgGfYibHt1Qj/uCzGwTd6UfnVRHUkwe0n6xzmFqHyxSJU/syNsQvtqP1uO2y/7kX9Ojney6lXsrDkoeL1QfT+e2HYQ1MDB/Dk0824+PcI20Ua7ra7BAudB8+1oyi3VeHUeOgjOah4dQBdtWshxymMt3xUHypG51EnPLkrsSaOLbv+PITyR+P/zXv0zQZ4ftKJ6keT/FUnbzUq3/0wTvXNhRTAVtEP5yUA8GDo3BjKN4Yew1ysLhjCyFiiLsQT3b4B59CSjdVljeg/54DzQFeCz+HSpV4gAwDysLm1D/0N4aGM9w9jy/drwmbYTQ39N86ErLr1yXV4KELrEwMvYEvxAZwPq4zkYdebgzjxzLfSNIznrKtBi7UNbZdm49fmjBNdx+1wbIz/G84zM4qVD0c6I7OYjWksc4xybdjxSCe6LyW2IlnwdDVGzjjhcTvRd3MH7BG+pRaUNWDo9b641nGT2b5h5/CRNSgYvR51TH0ypWggA8BDKPl5PwZ/XhL+k5njp1BTVj5vMsctXHkvNI5LsPmJ0C09+OjkvBl/QQqx/8x7aN+WCb8IZ0VRXQ0mD7dhKNZN3+3EsXMhb1uvC937dmPyUG3QyIB4yf2qHUN/DPmOc3MY7VW16E7oV59s2PfX4sMDDegLu8fshmsi9G2ejdw8FyZvxribR2yw/9mJvrN9wDYbIn6kratB23c6Uf0fo+HhMhGHUQoJbj/mc7giFzbX5NKDdKIbB38ZPunFfa4X3c8UYfUy+pwIKVdDDmZFYUMv+qw74Pjp+eAbdlMX0dz4X/g35158y3MFFztCNo0w3A23LuI/W0Jm/AEACtF0oQ/7iyJ9n05TK+w4uL0TK99afNUgexpRa+3CDpsTD3/Phny44Lzgwur9g+jalpghD/nbW+Go24I179hRXbAS064hjD1YjpYjx/Dw3u6E7POuvEp0deeira4YxQ8Wo3z1SuDGGAZ+Pwt7czvqgz6/rbBVVuOlnVvg2mZD9k0nHv5RP+o3LLaTfJTvvI6H9+Vi0LXQFYYVRS/2ovV0C3YUHUT+Rhvy/2karneH4fp2NVqb8oGwIWuxSGz7MZ/DR8pR/2AxiiuHUF0AjHxcjLbjDiz4CsuzY8e321Hz1EE8/FQ5Vn8ZmHY5Mex1oP+ITZorXpMQQhixY7/fj9nZ+F0ST5yuCp4+vX4vek8eweZVAN4/jK/bmoOCdu3L7+G92vARFp73D2OLbd706ZzNOPRWF+oei98ps1gseOCBB+LWnqw8bjc8AKzZ2Ul5wQf2B2s2sg14h93dP6zIjtYBrwfuGQ9gyUb2fYXkIu0DiTkWCWw/1nO4nNfY3X0k6vjfh7QJZOBO7be64jgu51TghPMEKlbdWX71V0/iyYPzR1jkoMn5N+xfH7mdW87mOz8wlFOB9nOvRZ5kch8yJZCJKDYpXrIIlmc/gr4LG3DxS1uxdVVg6VVc7Akf7lYY5cfoH7I1ofPMKnzy9V0oWbXwekRE8ZRWgQwADxVVYOv8BeNXcP5ayEpRhrsF5Nl2IRNu3xGRPFJ4lMXSTP3hPEJ//XhX6YaIw92IiIyU5oEcabjbVpQ8zjgmIvmkdyBHGu5m24z1XzGkN0REUaV3IGMVSlrrsGv9vWrw2k3rWBsmIiml1bC3qP4xgavOa/AUb0XhQj/PmSQc9kZEkWROIEuEgUxEkaR5yYKIKHUwkImIJMFAJiKShGGBbDKZYDabjdq9obKy+DlIROEMu6kX4PV6oes6/H6/kd1ICovFAlVVYTKZjO4KEUnI8EAO0HUdmqYZ3Y2EMJvNUBQlY68IiGhppAlkABBCQNM0eL2J/JstyWMymaCqKiyWtPsNJyJKAKkCOcDn80HXdfh8PqO7smyKokBVVaO7QUQpRMpADvB6vdA0DRJ3MYzFYoGiKLxxR0QxkzqQAzRNg67rRncjKtaJieh+pUQgA3emWuu6Ll19mXViIoqXlAnkAJ/PB03TpBgmxzoxEcVTygVygK7r0HXdkPoy68RElAgpG8jAnWFygWBOhqysLKiqyjoxESVESgdygN/vh6ZpCRsmZzKZoCgKFEVJSPtERECaBHJAIqZhB4KY052JKNHSKpAD4jEN22w2Q1VV1omJKGnSMpCB5U/DzsrKgqIoHMZGREmXtoEcEEt9WVVV1omJyDBpH8gB0erL/FlMIpJBxgRywPz6Mqc7E5FMMi6QiYhkxSEERESSYCATEUmCgUxEJAkGMhGRJBjIRESSYCATEUmCgUxEJAkGMhGRJBjIRESSYCATEUmCgUxEJAkGMhGRJBjIRESSYCATEUmCgUxEJAkGMhGRJP4fElEpWAyDYKMAAAAASUVORK5CYII=;" vertex="1" parent="1">
          <mxGeometry x="58" y="80" width="356" height="646" as="geometry" />
        </mxCell>
        <mxCell id="NE17KdItkLIfGXyRInoD-3" value="To Do" style="text;html=1;align=center;verticalAlign=middle;resizable=0;points=[];autosize=1;strokeColor=none;fillColor=none;fontStyle=1" vertex="1" parent="1">
          <mxGeometry x="550" y="75" width="60" height="30" as="geometry" />
        </mxCell>
        <mxCell id="NE17KdItkLIfGXyRInoD-4" value="&lt;ul&gt;&lt;li&gt;use any of the online editors like &lt;b&gt;codepen&lt;/b&gt;&lt;/li&gt;&lt;li&gt;Implement a list with icons&lt;/li&gt;&lt;li&gt;add icons from icons library ex: &lt;b&gt;fontawesome&lt;/b&gt;&lt;/li&gt;&lt;/ul&gt;&lt;div&gt;&lt;b&gt;&lt;br&gt;&lt;/b&gt;&lt;/div&gt;&lt;div&gt;&lt;b&gt;&amp;nbsp; &amp;nbsp; &amp;nbsp; &amp;nbsp;Note:&lt;/b&gt; need not implement the hexagon behind icon&lt;/div&gt;" style="text;html=1;align=left;verticalAlign=middle;resizable=0;points=[];autosize=1;strokeColor=none;fillColor=none;" vertex="1" parent="1">
          <mxGeometry x="475" y="120" width="320" height="110" as="geometry" />
        </mxCell>
      </root>
    </mxGraphModel>
  </diagram>
  <diagram id="_GNwHkAucHgsReIgifGH" name="Simple form">
    <mxGraphModel dx="1883" dy="1674" grid="1" gridSize="10" guides="1" tooltips="1" connect="1" arrows="1" fold="1" page="1" pageScale="1" pageWidth="827" pageHeight="1169" math="0" shadow="0">
      <root>
        <mxCell id="0" />
        <mxCell id="1" parent="0" />
        <mxCell id="CdXObyWlOZd4ZN0ZwtDw-1" value="" style="shape=image;verticalLabelPosition=bottom;labelBackgroundColor=default;verticalAlign=top;aspect=fixed;imageAspect=0;image=data:image/png,iVBORw0KGgoAAAANSUhEUgAAAh4AAAKgCAYAAADUA3RPAAAgAElEQVR4nO3deXSdaWHn+d+9utKVfCVZtmV5Lzu1sxRrAumwZSUJAZJMSA4JTOYkMCGETCeZ4TDJTLrDZOlm6HRPutNDmhk6Z6ZImskJw+kOBJoQCDDsgWKtKipVUFVgy5ss2bK2K13dO3+4pSqVZJdsqx5VyZ/POXU4fv3c93mv+OP96n2f93Wl0+l0AgBQQHWzDwAAuHYIDwCgGOEBABQjPACAYoQHAFCM8AAAihEeAEAxwgMAKEZ4AADFCA8AoBjhAQAUIzwAgGKEBwBQjPAAAIoRHgBAMcIDAChGeAAAxQgPAKAY4QEAFCM8AIBihAcAUIzwAACKER4AQDHCAwAoRngAAMUIDwCgGOEBABQjPACAYoQHAFCM8AAAiqlt1sRzc3OZnp5Os9lMu93erMMAAB6hWq2mXq+n0Wikt7d3Q/dd6XQ6nQ3d4zpMTExkenq69LQAwGXq7+/P0NDQhu2v+BWPh0fH9u3b09fXl1pt0y68AACP0Gq1Mjs7m3PnzmVqaipJNiw+il7xmJuby9jYWJJkZGQkPT09paYGAC7T/Px8Tp06lSQZHh7ekNsuRReXLl3pGBwcFB0A8DjX09OTwcHBJNmwJRJFw6PZbCZJ+vr6Sk4LAFyhpXP20jn8ahUNj6WnV7q7u0tOCwBcoaVz9kY9geo9HgBAMcIDAChGeAAAxQgPAKAY4QEAFCM8AIBihAcAUIzwAACKER4AQDHCAwAoRngAAMUIDwCgGOEBABQjPACAYoQHAFCM8AAAihEeAEAxWy48FhcX0263L/n3nU6n4BEBAEu2XHgcPXo0Dz744EXj4vjx45mdnS18VABAsgXDo1arpVKpZHJycrMPBQB4hC0XHp1OJ0NDQzlz5kxardZmHw4A8DC1zT6Ax0JPT08GBwdz5syZ7NmzZ12fmZmZyfHjxzM9PZ12u51du3Zl//796erqWjFuYmIijUYjzWYzR48ezczMTIaGhnLdddelu7s758+fz7FjxzI7O5uhoaEcPHgw3d3dq+Z7+OeTZM+ePRkeHk61uuVaEACWbcnwSJIdO3bkW9/6Vubm5tLb23vJsRMTE5mamlqOh06nk1OnTmV0dDQHDx5MpVJZHjs1NZVz586lr68vt9xyS6rVaiYmJvLtb387AwMD6XQ6ufnmm1OtVnPmzJmMjo7muuuuW7GPmZmZjI6O5tChQ6nX6+l0OhkfH8/o6GgOHDiwYiwAbCVb9tfrrq6u7N69OydPnnzUp1h27NiRQ4cOLV+ZqFQqGR4eTqvVWnW7ptPppNFoZM+ePctXJ7Zv357FxcXUarWMjIwsbx8aGkqr1cr8/Pzy5xcXF3P8+PEcPHgw9Xp9eb6dO3em3W5b+ArAlrZlwyNJGo1Gurq6rmihaaVSSaVSycLCwort1Wo1jUZj1ba+vr7lkHj49lqtlsXFxeVtMzMz6e7uXnUVplKppLe3N81m87KPFQCeKLbsrZbkwsl89+7dOXbsWBqNRmq1i3/dTqeT2dnZjI+P5/z586lWq5d8H8h653/kGpFms5l2u52zZ8+uGt9qtbxjBIAtbUuHR5LU6/UMDg5mfHw8IyMja46Zm5vLgw8+mOHh4ezbty8HDx5McuGdIBttcXEx9Xp91VWT5KErNACwVW358EhWLjR9pHa7nePHj+fAgQPp7+9/zI+lr68vk5OTaz7pAgBb3ZZe47Gkq6srw8PDOX369KrbJ0uvUH+0J182Sm9vb+bm5rxjBIBr0jURHknS399/0cWinU5nRQi02+2cOnUqZ86c2fDjWHrHyOjo6KoImp+ft8YDgC3tmrjVkjy00PS+++5bsX3psdt77703g4ODSS4sAN23b1927tz5mBzL7t27MzY2lrvuuisDAwOpVCqZmZnJwMBA9u3b5z0eAGxZlU7BX7GXFmsuLd58POl0OsuPvV7q6ZfHYs5Op5Ouri5vLQXgcWkjz9/XzBWPR1OpVIoFx2bOCQCbya/YAEAxwgMAKEZ4AADFCA8AoBjhAQAUIzwAgGKEBwBQjPAAAIoRHgBAMcIDAChGeAAAxQgPAKAY4QEAFCM8AIBihAcAUEzR8KhWL0y3sLBQcloA4AotnbOXzuFXq2h41Ov1JMns7GzJaQGAKzQzM5PkoXP41SoaHo1GI0kyOTmZ+fn5klMDAJdpfn4+58+fT/LQOfxqVTqdTmdD9rROExMTmZ6eTpJs3749fX19qdVqJQ8BALiEVquV2dnZnDt3LknS39+foaGhDdl38fBIVsYHAPD4tZHRkWxSeCTJ3Nxcpqen02w20263N+MQAIA1VKvV1Ov1NBqN9Pb2bui+Ny08AIBrj/d4AADFCA8AoBjhAQAUIzwAgGKEBwBQjPAAAIoRHgBAMcIDAChGeAAAxQgPAKAY4QEAFCM8AIBihAcAUIzwAACKER4AQDHCAwAoRngAAMUIDwCgGOEBABQjPACAYoQHAFCM8AAAihEeAEAxwgMAKEZ4AADFCA8AoBjhAQAUIzwAgGKEBwBQTG2zJp6bm8v09HSazWba7fZmHQYA8AjVajX1ej2NRiO9vb0buu9Kp9PpbOge12FiYiLT09OlpwUALlN/f3+GhoY2bH/Fr3g8PDq2b9+evr6+1GqbduEFAHiEVquV2dnZnDt3LlNTU0myYfFR9IrH3NxcxsbGkiQjIyPp6ekpNTUAcJnm5+dz6tSpJMnw8PCG3HYpurh06UrH4OCg6ACAx7menp4MDg4myYYtkSgaHs1mM0nS19dXcloA4AotnbOXzuFXq2h4LD290t3dXXJaAOAKLZ2zN+oJVO/xAACKER4AQDHCAwAoRngAAMUIDwCgGOEBABQjPACAYoQHAFCM8AAAihEeAEAxwgMAKEZ4AADFCA8AoBjhAQAUIzwAgGKExyabmJjI/Pz8Zh8GABRR2+wD2GiLi4tpt9tr/l1XV1eq1c1prcXFxZw+fTpDQ0Pp7e1d3j49PZ16vZ6enp5NOS4AKGnLhcexY8fSarVSq63+akNDQxkcHNyEo3ooPLZt27YiPADgWrLlwqNarWbv3r3Ztm3bZh/KCj09Pbnttts2+zAAYFNZ4wEAFLPlrnisV7vdzsTERLZv357z58/n2LFjaTabGRkZyf79+1OtVnP27NnlWzfDw8PL2x+5n7Nnz+bEiRNZWFhItVrN/v37s2vXrjXnGxoaSldXV8mvCgCPG9dseCTJ5ORkpqamMjAwkKc85SlJklOnTmV0dDS1Wi29vb3L20+cOJGTJ09m3759y5/vdDo5duxYtm3blltvvTXVajWLi4u5//77U6vVsn379hXzTU1NZXBwUHgAcM3acuHRbrdz/vz5VY+o9vb2rlrUubi4mJ07d64IhJ07d+bee+/N4cOH02g0Vmw/evRoFhcXl8OhUqnk0KFDK/bZ1dWVvXv3Ll9NAQAeck2v8eju7l61CLWrqyuNRmPV4621Wi2VSuWij+o+cmyr1VrXWAC4lmy5Kx7VajUDAwMb/lRLpVK56C2SdrudycnJTExMZHZ2Nt3d3alUKhs6PwBsBVsuPEobHx/P2NhYDhw4kCNHjqRSqWRhYSGjo6ObfWgA8LgjPK7C3NxcJiYmcv3116/5wjIAYKVreo3H1Wo2m+nt7RUdALBOwuMq1Gq1NJvNFYtIFxYWcvToUf/wGwCsYcv9qr64uJh77rlnzYWgAwMDOXz48Ib9Q3FL/+7K17/+9fT396fVaqVarWbPnj05ffr0uvbR1dWVEydO5NChQ+nu7t6Q4wKAx6tKp9PplJrs6NGjSZKDBw+WmrKIdru9/H6Py42aTqez/FlPwgDweLSR5+8td8VjM1Sr1Su+ilKpVKwRAeCaYY0HAFCM8AAAihEeAEAxwgMAKEZ4AADFCA8AoBjhAQAUIzwAgGKEBwBQjPAAAIoRHgBAMcIDAChGeAAAxQgPAKAY4QEAFCM8AIBiioZHtXphuoWFhZLTAgBXaOmcvXQOv1pFw6NerydJZmdnS04LAFyhmZmZJA+dw69W0fBoNBpJksnJyczPz5ecGgC4TPPz8zl//nySh87hV6vS6XQ6G7KndZqYmMj09HSSZPv27enr60utVit5CADAJbRarczOzubcuXNJkv7+/gwNDW3IvouHR7IyPgCAx6+NjI5kk8IjSebm5jI9PZ1ms5l2u70ZhwAArKFaraZer6fRaKS3t3dD971p4QEAXHu8xwMAKEZ4AADFCA8AoBjhAQAUIzwAgGKEBwBQjPAAAIoRHgBAMcIDAChGeAAAxQgPAKAY4QEAFCM8AIBihAcAUIzwAACKER4AQDHCAwAoRngAAMUIDwCgGOEBABQjPACAYoQHAFCM8AAAihEeAEAxwgMAKEZ4AADFCA8AoBjhAQAUIzwAgGJqmzXx3Nxcpqen02w20263N+swAIBHqFarqdfraTQa6e3t3dB9VzqdTmdD97gOExMTmZ6eLj0tAHCZ+vv7MzQ0tGH7K37F4+HRsX379vT19aVW27QLLwDAI7RarczOzubcuXOZmppKkg2Lj6JXPObm5jI2NpYkGRkZSU9PT6mpAYDLND8/n1OnTiVJhoeHN+S2S9HFpUtXOgYHB0UHADzO9fT0ZHBwMEk2bIlE0fBoNptJkr6+vpLTAgBXaOmcvXQOv1pFw2Pp6ZXu7u6S0wIAV2jpnL1RT6B6jwcAUIzwAACKER4AQDHCAwAoRngAAMUIDwCgGOEBABQjPACAYoQHAFCM8AAAihEeAEAxwgMAKEZ4AADFCA8AoBjhAQAUIzwAgGKEBwBQjPAAAIoRHgBAMcIDAChGeAAAxQgPAKAY4QEAFCM8AIBitlx4LC4uZnFx8ZJjWq3Wo44BADbelguPY8eO5Zvf/OZFw2JhYSH33HNPjh07VvjIAIAtFx61Wi21Wi2zs7Nr/v3MzEwajUaq1S331QHgcW/LnX3b7XYajUYmJydX/V2n08n58+fTaDTSbrc34egA4NpW2+wDeCz09fVlfHw8rVYrtdpDX3FhYSHtdjvd3d2ZmZlZ87PT09M5duxYms1mKpVKDhw4kKGhoVQqleUx7XY7o6OjmZiYSKVSSV9fXw4cOJDe3t7LHnP27NmcOHEiCwsLqVar2b9/f3bt2rXquDqdTsbGxnL69OksLi6mt7c39Xo9SdLb25vh4eHlqzjNZjNHjx5d/o579uxZ8fcAsFm2ZHh0dXWlXq9nZmYmg4ODy9unp6czMDCwIiIe7uzZszl79myuv/761Gq1tNvtnDx5MqdPn87IyEiSCwFw7Nix9Pf35+DBg0mS+fn5nD9/PvV6PZVK5bLGbNu2Lbfeemuq1WoWFxdz//33p1arZfv27SuObXR0NLVaLU960pNSqVQyOzub06dP58CBA+nq6loeNzMzk9HR0Rw6dCj1ej2dTifj4+MZHR3NgQMHLvrdAaCELfsr8ODg4IrbLe12e/k2y1rm5+czNjaWgwcPLl8lqVarGRkZyfT0dBYWFpJceCJmYWEhAwMDy5/t6enJrl27lk/q6xlTqVRy6NCh7Nq1a/lKRFdXV/bu3bvqNlGz2cz8/Hx27969/Pm+vr709fVlYmJiedzi4mKOHz+egwcPLl8NqVQq2blzZ9rt9kXXvQBAKVs2PHp7e9NutzM/P5/kQlh0dXWlp6dnzfGTk5MZGBhYcWsmuRAD3d3daTaby3+uVCrLf17LesZcTK1WS6vVWrEGZXFxMd3d3atulfT09CwHUXLhakd3d/eK2znJhfjo7e29ouMBgI20JW+1JBeuVjQajUxPT6enpydTU1MrrkA80tzcXKrVas6ePbvq7x7+3o9qtZoDBw7kgQceSLVazb59+7Jt27YVtzDWM2ZJu93O5ORkJiYmMjs7m+7u7lXjarVaFhYWsri4uOK2yvz8fLq7u5f/3Gw2l9eNrPUdOp3OJX5iAPDY27LhkSQDAwM5depUBgcHMzMzk6GhoYuOXVxczLZt29a8FdNoNFac8Ht6enLzzTdnbm4uJ0+ezNTUVA4fPpz+/v7LGjM+Pp6xsbEcOHAgR44cSaVSycLCQkZHR1fM39PTk0ajkbGxsYyMjCyv8ZicnMx111234jvU6/V1fQcA2AxbOjyWrgacO3cu3d3dq26jPFxfX9/yEy/r1dvbm8OHD6fZbOaBBx7I4cOHV93muNiYubm5TExMLC9kXc9cp0+fzpkzZ9Jut9Pf35/rrrtuxfH29fVlcnLysr4DAJS0pcOjUqlkYGAg3/rWt3L99ddfcmyj0cjJkyezc+fOy37stF6vL6+heGR4XGzM0v+uJzparVYmJiZy5MiRS1616O3tzalTp1Y9RgwAjxdbdnHpkkajkb1796avr++S47Zt25bu7u6cPn16xVqITqezvEA1ubCA8+zZsyvGtFqttFqt5SdJ1jOmVqstr8lYsrCwkKNHj66Y7+Gff7R/X6anpyeDg4MZHR1d9YK0+fl5azwA2HRb/tfiWq2W3bt3P+q4pZeFnThxInfdddfyWoyZmZkMDw9neHg4lUol9Xo94+Pjy+/pWBrz8JeDrWfMtm3b0tvbm69//evp7+9Pq9VKtVrNnj17cvr06VXfYWhoKF/60peW3wOydMxDQ0PZu3fv8u2V3bt3Z2xsLHfdddfyO0tmZmYyMDCQffv2eY8HAJuq0in4a/DRo0eTZPmlWo9X7XY7i4uLqVQqy4/GPlKn01m+AnE1Y5bm6urquugtnmazmRMnTuTgwYMrbrUsvRxscnIyhw8fXvH5pbk7nc4l9w0Aj2Yjz99b/orHlahWq496oq5UKo+6jmI9Y9Yz1/j4eHbu3LlqfUelUsng4GDOnj2bdru9Yj/rmRsASvNr8BNEq9Vac/vU1FTq9brIAOAJQXg8AezatSunTp3KmTNnlgNkYWEhJ06cyPj4ePbs2bPJRwgA6+PX5CeAnp6e3HTTTZmcnMzx48eX123s2LEje/bssWAUgCcM4fEEUa1WMzQ0dMm3rwLA451bLQBAMcIDAChGeAAAxQgPAKAY4QEAFCM8AIBihAcAUIzwAACKER4AQDHCAwAoRngAAMUIDwCgGOEBABQjPACAYoQHAFCM8AAAihEeAEAxwgMAKEZ4AADFCA8AoBjhAQAUIzwAgGKEBwBQjPAAAIoRHgBAMcIDAChGeAAAxQgPAKAY4QEAFCM8AIBihAcAUIzwAACKER4AQDHCAwAoRngAAMUIDwCgGOEBABQjPACAYoQHAFCM8AAAihEeAEAxwgMAKEZ4AADFCA8AoBjhAQAUIzwAgGKEBwBQjPAAAIoRHgBAMcIDAChGeAAAxQgPAKAY4QEAFCM8AIBihAcAUIzwAACKER4AQDHCAwAoRngAAMUIDwCgGOEBABQjPACAYoQHAFCM8AAAihEeAEAxwgMAKEZ4AADFCA8AoBjhAQAUIzwAgGKEBwBQjPAAAIoRHgBAMcIDAChGeAAAxQgPAKAY4QEAFCM8AIBihAcAUIzwAACKER4AQDHCAwAoRngAAMUIDwCgGOEBABQjPACAYoQHAFCM8AAAihEeAEAxwgMAKEZ4AADFCA8AoBjhAQAUIzwAgGKEBwBQjPAAAIoRHgBAMcIDAChGeAAAxQgPAKAY4QEAFCM8AIBihAcAUIzwAACKER4AQDHCAwAoRngAAMUIDwCgGOEBABQjPACAYoQHAFCM8AAAihEeAEAxwgMAKEZ4AADFCA8AoBjhAQAUIzwAgGKEBwBQjPAAAIoRHgBAMcIDAChGeAAAxQgPAKAY4QEAFCM8AIBihAcAUIzwAACKER4AQDHCAwAoRngAAMUIDwCgGOEBABQjPACAYoQHAFCM8AAAihEeAEAxwgMAKEZ4AADFCA8AoBjhAQAUIzwAgGKEBwBQjPAAAIoRHgBAMcIDAChGeAAAxQgPAKAY4QEAFCM8AIBihAcAUIzwAACKER4AQDHCAwAoRngAAMUIDwCgGOEBABQjPACAYoQHAFCM8AAAihEeAEAxwgMAKEZ4AADFCA8AoBjhAQAUIzwAgGKEBwBQjPAAAIoRHgBAMcIDAChGeAAAxQgPAKAY4QEAFCM8AIBihAcAUIzwAACKER4AQDHCAwAoRngAAMUIDwCgGOEBABQjPACAYoQHAFCM8AAAihEeAEAxwgMAKEZ4AADFCA8AoBjhAQAUIzwAgGKEBwBQjPAAAIoRHgBAMcIDAChGeAAAxQgPAKAY4QEAFCM8AIBihAcAUIzwAACKER4AQDHCAwAoRngAAMUIDwCgGOEBABQjPACAYoQHAFCM8AAAihEeAEAxwgMAKEZ4AADFCA8AoBjhAQAUIzwAgGKEBwBQjPAAAIoRHgBAMcIDAChGeAAAxQgPAKAY4QEAFCM8AIBihAcAUIzwAACKER4AQDHCAwAoRngAAMUIDwCgGOEBABQjPACAYoQHAFCM8AAAihEeAEAxwgMAKEZ4AADFCA8AoBjhAQAUIzwAgGKEBwBQjPAAAIoRHgBAMcIDAChGeAAAxQgPAKAY4QEAFCM8AIBihAcAUIzwAACKER4AQDHCAwAoRngAAMUIDwCgGOEBABQjPACAZa973evyute97jHbv/AAAJLkMQ2OJbXHfAYA4HFvKTpe/epX5wUveMFjNo8rHgBwjSsVHYnwAIBrWsnoSIQHAFyz1ooOi0sBgA13seh4rFlcCgDXmEtFx5ZaXFqtXphuYWGh5LQAwH9xudGxdM5eOodfraLhUa/XkySzs7MlpwUA/ou3v/3tSbIiMNbatmRmZibJQ+fwq1XpdDqdDdnTOszNzWVsbCxJMjIykp6enlJTAwCXaX5+PqdOnUqSDA8Pp7e396r3WTQ8kmRiYiLT09NJku3bt6evry+1mqUmAPB40Wq1Mjs7m3PnziVJ+vv7MzQ0tCH7Lh4eycr4AAAevzYyOpJNCo/kwm2X6enpNJvNtNvtzTgEAGAN1Wo19Xo9jUZjQ26vPNymhQcAcO3xAjEAoBjhAQAUIzwAgGKEBwBQjPAAAIoRHgBAMcIDAChGeAAAxQgPAKAY4QEAFCM8AIBihAcAUIzwAACKER4AQDHCAwAoRngAAMUIDwCgGOEBABQjPACAYoQHAFCM8AAAihEeAEAxwgMAKEZ4AADFCA8AoBjhAQAUIzwAgGKEBwBQjPAAAIoRHgBAMcIDAChGeAAAxQgPAKAY4QEAFCM8AIBihAcAUIzwAACKER4AQDHCAwAoprZZE9/RmcoHOxP5amcmZ9ParMMAAB5hKLXcVtmWH67syLMq/Ru670qn0+ls6B7X4U/ax/PeznjpaQGAy/Syys68vrpvw/ZX/FaL6ACAJ473dsbzJ+3jG7a/ouFxR2dKdADAE8x7O+O5ozO1IfsqGh4f7EyUnA4A2CAbdQ4vGh5f7cyUnA4A2CAbdQ4vGh6eXgGAJ6aNOod7jwcAUIzwAACKER4AQDHCAwAoRngAAMUIDwCgGOEBABQjPACAYoQHAFCM8AAAihEeAEAxwgMAKEZ4AADFCA8AoBjhAQAUIzwAgGKEBwBQjPAAAIoRHgBAMcIDAChGeMDV6HQy+cW78sVX/g/50I7n5m9Hnpevvvaf5PxX7kk6nRVDF86czd+/5HX5QO2pq/677/f/3ZpjH/g3f7ZqP9P3PJBPPOunMvof3rdi++JsM1/7ld9dsd+P3vDi3P3Gt2bu2ycu62tNfOqL+UDtqTn6p+9Z8+/PfOQz+dCO5646hiQZ/Q/vW/M7fuJZP5Xpex5YMbbTbufMhz+dz734tSuOd/aBY6v2ezljl38m07P5ymt+O3e84teyMDF5ye889+0TufuNb81Hb3hxPrTjubnjp34t4x///Kqf/8N/Pmv9N/GpL15yHrjW1Tb7AOCJ7Nwdd+XLr35Thl/8vDzzL/8oi1MzOf7uD+beN//veeq/e3N6Rnau+syN//RXsutF37ViW8/IrjX3/8C/vj2Dz7g1O1/4nes+pkOvfUX2/+yPJUlmHxzNg297V85+6ku57d//fvqfdP1lfLtk9C8+kN0/+oLU9+1e3rY4PZtjf/6+tM5PX/RzQ895Wm74n34ptYHG8rZKrSv1/btXjDv1vo/mzjf8Xq77pZ/JDb/52syNns6Jv/zP+cZb/32e9C//x3T11a9o7JLZB4/l3Oe+krmjJzN19zey43ueuebxTt39zXz1Nb+d2tBAbn3rG1Pp6sro//P+fOHH35CnvO2fZv8rX5JUKis+07jpcG78J69P74E9K7fffOSiPxdAeMBVGfvQp9L/lBtz05t/Nd07BpMke378+9OanE5te/+an2nceF12PiI8Lmb2wdE88Ee3p3HLd6S+Z+04eaTeg3tX7H/4h5+fO1//v+SBP/6zi56gL+bMhz+d0x/4/3LwF/+r5W3n7rgzY3/zyUt+rjY0kB3/6Bnp3jV00THtuWbGPvSp7H3Fi3P9m16Tar0nSbL/lS9Je6654jgvZ+zDTXzijgw89eZsf87TMv53n8uOf/SMVQHRmpzKN9/6jgzcdlNu/cM3LcfSyEu/Nw++7V3p6utdc9/Vvt5sf/ZT07hFaMDlcKsFrlB7fiHzYxNpnT2fxZm5h/6iUrlodFyufT/9I5n88tdz9B3vTqe1eEX7qO/ZlQP/9csz/nefzcx9D677cwNPvSn7fvpHcvK9f5f5U+NJLtzOGX3X+zP0nKdl6DlPu6LjWdJuLmT+1HhaZ8+n3Zxf3l6pdaWrf9sVj13SOjeVsQ9/JsM/9D3Z+xM/kDMf/3yaJ8ZWjTv3+a9l/OOfz6HXvmLVFZoj//jV2fMTP7AqVoArJzzgClV7urP9WU/OmY9+Lp//sQvrMabveeBRA2FxZi4LZ84+9N/EZDrt9ppjR176vbnht34p3/zDP82p93/sio+1/0k3pFrvueR6iFWq1Rz4+Zdn/uSZjP3tp5Ik5z7/1Yx/7HPZ/6qXpjY0cNGPdlqLWZiYXPE9F2ebK8Z09W/L4DOflGPv/AqZMFwAAAdzSURBVKt8/uVvyLHb/1NmHxxd82dxOWOXTH/jW5m9/2iGvvtpGXjaLWnPzmXq7m+sGnf+K/+QbTceTt+Rg+v9yVzQbqd1fmrld5yaubx9wDXIrRa4Cnt/6sWpVKv5xlv+z9z9378ld+fClYKbfucNGfnx70+lurrtv/bLb87XfvnNy38efvHz8ox3/q9r35aoJPt/9scy+eWv55tveUf6n3TDlR1opZJUq5dcl7GWviMHMvLy78vxv/xgdjz/2Tnxng9l54uek6HnPC3ffse7L/q5Mx/5TD5260tWbHv67W/J/p976UOH1FXNkf/u1enqreeBP/6zfOUX/+ckyY7nPzu3/PPfyI7vfvrylYbLGZsk6XQy/rG/T/+Tb0jvoX2p1nuy/Tm35cxHPpudL3pOKl0P/f/SmppJpauaSvWhz3daixd+Vu12Uq2mNtBIpda14vuc/9q9+dR3v3LFtpve/Ku58bd/eT0/WrhmueIBV6Fa78m+V74kz/v8u/Oiez6QW/7Zb6S9sJA7//EfZOKTd6z5maff/pb8aOtry/991/vffsm1EF2Nvhz+lZ9Lkjzwb96Z1vQV/Fbd6STt9opbCetRqXZl70/+UGYfHM19v/8nGfubT2b/z77kUdeJDL/4efnBk59Y8T0fHh1Luhp9OfLrP58X3v3Xef4X35Mbfuu/zdRd9+XON/xepv/hwSseu3D2fCY+eUd2fM8zUxtopNrTnZ3Pe1YmPv2lzJ9cebulPrIzncV2Ou2Hnl6Z+ca389kf+IX87Z7n57M/8AuZ+ca3Vx37wNNuyQvvfN+K7yg64NEJD9gAlVpXtt1wKNe/6TV5xp//i9T6t2XyC3dt2P77n3R9rv/N12b0z96b4+/66wu/iV+Gqbu/kXZzPn1HDlz23NtuvC77fuZHcvRP35OdL3pOtn/nbZe9j0dT7enOwG035+bf+7U8/fa35PxX7sn0P9x/xWOn7v5Gznz4MyseL77jp3894x/7+5z7wp0rxvY/9abM3PdgZh84urytccuRPP+O/zcvvPN9617UC6yP8ICrcO6Ou1a9H6Krry/Vvt50bVv7aYgrNfKSF+X6N/5i7v/f/u+c/9q96/5c8+SZHHvnX2Xn9z032248fNnzVrqq2fuTP5Sh5z59XVc71quz2M7Zz3551dqP2mD/hasUD3ua5HLHjv3NJ7P7x16U7/3mh/KDJz+RHzz5iXz/sY/l8K/8bMY+8pkVC1QHnnpTdr7wO3P/H92e+dMTDzvATs5/9Z60Ji/v9hRwadZ4wBWaPz2Re3/n32bqrvuy/1Uvzc4Xflc68ws5evt/SmdhITue/6w1Pzd937cy/rG/X7GtNjSQgafevGLtwSNVal05+NpX5NwX7szJv/rIRcfNHT2xvP+l93hUqtXc/Ae/fsXR0Lj5cL7rP/8f6Wr0rWt86+z5THz6S6tu7fQ/5cb0DO9Ikszc96187fW/m7Tb2f+ql2X7s5+chYnJPPi2d2X7c56WgafcuPy5yxk7f+pMJj795Yz86AvSd92+FfPv+r7n5pv/4k/THD2dvu+4cPWnNtif69/02nz1Nb+dL/83v5n9P/fS9OzcnlN//dGc/Ku/S+++le8eWdKencu5L3wtzROnV2zvO3IgfYf3r+vnBNci4QFXqGf3jjz9//pnOfGeD+Xkf/xwHvzjP0+lu5Y9L//+PONd/zL9T75xzc/d97tvy32P2Hbol35mXe/YqO/Zle944y9k8stfv+iYb7/j3csLPxu3HMm+n/6RHH7Dq9Kze8dlfb8VKpXLWh9y9nNfyRd+4ldXbf/uj79zOTwatxzJs//jv83xv/hATn/g47nnt/5V+g7vz56f/MF8x6/9/IqXll3O2PN33pepu+7LLf/8N1bN3//kG7M418zkl+5eDo/kwq2sZ/7Fv8r9//r23Ps7f5wk2f+ql+aZ7/rD3PcHb1/zO07f+2C+/PO/uWr7029/i/CAS6h0Omu8D/gx8pLFOx99EADwuPT+rqdc9T6s8QAAihEeAEAxwgMAKEZ4AADFCA8AoBjhAQAUIzwAgGKEBwBQjPAAAIoRHgBAMcIDAChGeAAAxQgPAKAY4QEAFCM8AIBihAcAUIzwAACKER4AQDHCAwAoRngAAMUIDwCgGOEBABRTNDyGUis5HQCwQTbqHF40PG6rbCs5HQCwQTbqHF40PH64sqPkdADABtmoc3jR8HhWpT8vq+wsOSUAcJVeVtmZZ1X6N2RfxReXvr66T3wAwBPEyyo78/rqvg3bX6XT6XQ2bG+X4Y7OVD7YmchXOzM5m9ZmHAIAsIah1HJbZVt+uLJjw650LNm08AAArj3e4wEAFCM8AIBihAcAUIzwAACKER4AQDHCAwAoRngAAMUIDwCgGOEBABQjPACAYoQHAFCM8AAAihEeAEAxwgMAKEZ4AADFCA8AoBjhAQAUIzwAgGKEBwBQjPAAAIoRHgBAMcIDAChGeAAAxQgPAKAY4QEAFCM8AIBihAcAUIzwAACKER4AQDHCAwAoRngAAMUIDwCgGOEBABTz/wMQBD3OE9qmZwAAAABJRU5ErkJggg==;" vertex="1" parent="1">
          <mxGeometry x="-10" y="-1080" width="467.8" height="580" as="geometry" />
        </mxCell>
        <mxCell id="P7HKgu9_ieYRfPnQpvzP-1" value="&lt;span style=&quot;color: rgb(32, 33, 36); font-family: consolas, &amp;quot;lucida console&amp;quot;, &amp;quot;courier new&amp;quot;, monospace; text-align: left; background-color: rgb(255, 255, 255);&quot;&gt;#49fcd4&lt;/span&gt;" style="text;html=1;align=center;verticalAlign=middle;resizable=0;points=[];autosize=1;strokeColor=none;fillColor=none;" vertex="1" parent="1">
          <mxGeometry x="70" y="-570" width="70" height="30" as="geometry" />
        </mxCell>
      </root>
    </mxGraphModel>
  </diagram>
</mxfile>
